<svg width="40" height="40" viewBox="0 0 40 40" fill="none" xmlns="http://www.w3.org/2000/svg">
<g clip-path="url(#clip0_280_175)">
<path d="M40 40H0V5C0 2.24333 2.24333 0 5 0H35C37.7567 0 40 2.24333 40 5V40ZM3.33333 36.6667H36.6667V5C36.6667 4.08167 35.9183 3.33333 35 3.33333H5C4.08167 3.33333 3.33333 4.08167 3.33333 5V36.6667Z" fill="#777674"/>
<path d="M12 28.28C8.28 28.28 6 26 6 23H9.12C9.12 24.2 10.2 25.28 12 25.28C13.8 25.28 14.76 24.32 14.76 23.12C14.76 21.8 13.8 20.84 11.88 20.84H10.8V18.08H11.88C13.68 18.08 14.52 17.12 14.52 15.92C14.52 14.84 13.68 14 12 14C10.32 14 9.36 14.84 9.36 16.04H6.24C6.24 13.28 8.52 11 12.12 11C15.48 11 17.64 13.16 17.64 15.92C17.64 18.56 15.36 19.4 15.36 19.4V19.52C15.36 19.52 17.88 20.36 17.88 23.36C17.88 26 15.6 28.28 12 28.28Z" fill="#777674"/>
<path d="M19.8847 28.04V11.24H26.0047C30.5647 11.24 34.1647 14.84 34.1647 19.64C34.1647 24.44 30.5647 28.04 26.0047 28.04H19.8847ZM23.0047 25.04H26.0047C28.8847 25.04 31.0447 22.88 31.0447 19.64C31.0447 16.4 28.8847 14.24 26.0047 14.24H23.0047V25.04Z" fill="#777674"/>
</g>
<defs>
<clipPath id="clip0_280_175">
<rect width="40" height="40" fill="white"/>
</clipPath>
</defs>
</svg>
