<svg width="16" height="17" viewBox="0 0 16 17" fill="none" xmlns="http://www.w3.org/2000/svg">
<g clip-path="url(#clip0_941_9781)">
<path d="M8 0.5C6.41775 0.5 4.87103 0.969192 3.55544 1.84824C2.23985 2.72729 1.21447 3.97672 0.608967 5.43853C0.00346629 6.90034 -0.15496 8.50887 0.153721 10.0607C0.462403 11.6126 1.22433 13.038 2.34315 14.1569C3.46197 15.2757 4.88743 16.0376 6.43928 16.3463C7.99113 16.655 9.59966 16.4965 11.0615 15.891C12.5233 15.2855 13.7727 14.2602 14.6518 12.9446C15.5308 11.629 16 10.0822 16 8.5C15.9977 6.37897 15.1541 4.34547 13.6543 2.84568C12.1545 1.34589 10.121 0.502294 8 0.5V0.5ZM8 15.1667C6.68146 15.1667 5.39253 14.7757 4.2962 14.0431C3.19987 13.3106 2.34539 12.2694 1.84081 11.0512C1.33622 9.83305 1.2042 8.4926 1.46143 7.1994C1.71867 5.90619 2.35361 4.7183 3.28596 3.78595C4.21831 2.8536 5.40619 2.21867 6.6994 1.96143C7.99261 1.7042 9.33305 1.83622 10.5512 2.3408C11.7694 2.84539 12.8106 3.69987 13.5431 4.7962C14.2757 5.89253 14.6667 7.18146 14.6667 8.5C14.6647 10.2675 13.9617 11.9621 12.7119 13.2119C11.4621 14.4617 9.76752 15.1647 8 15.1667Z" fill="#E35131"/>
<path d="M8.47792 3.87522C8.09348 3.80518 7.69833 3.82048 7.32045 3.92005C6.94257 4.01962 6.59119 4.20102 6.29118 4.45142C5.99117 4.70182 5.74986 5.0151 5.58433 5.36909C5.41879 5.72307 5.33308 6.10911 5.33325 6.49989C5.33325 6.6767 5.40349 6.84627 5.52851 6.97129C5.65354 7.09631 5.82311 7.16655 5.99992 7.16655C6.17673 7.16655 6.3463 7.09631 6.47133 6.97129C6.59635 6.84627 6.66659 6.6767 6.66659 6.49989C6.66642 6.30374 6.70953 6.10997 6.79285 5.93239C6.87617 5.75482 6.99764 5.59781 7.1486 5.47257C7.29956 5.34733 7.4763 5.25694 7.66621 5.20785C7.85611 5.15876 8.05451 5.15217 8.24726 5.18855C8.51062 5.23968 8.75276 5.36814 8.94276 5.55755C9.13275 5.74695 9.26198 5.98869 9.31393 6.25189C9.36639 6.52815 9.33017 6.81394 9.21043 7.06838C9.09069 7.32282 8.89357 7.53289 8.64726 7.66855C8.23937 7.90486 7.90231 8.24623 7.67121 8.65709C7.4401 9.06794 7.3234 9.53326 7.33326 10.0046V10.4999C7.33326 10.6767 7.40349 10.8463 7.52852 10.9713C7.65354 11.0963 7.82311 11.1665 7.99992 11.1665C8.17673 11.1665 8.3463 11.0963 8.47133 10.9713C8.59635 10.8463 8.66659 10.6767 8.66659 10.4999V10.0046C8.65823 9.77256 8.71113 9.54246 8.81997 9.33741C8.92881 9.13237 9.08975 8.95962 9.28659 8.83655C9.7696 8.57127 10.1586 8.16286 10.4 7.66749C10.6414 7.17212 10.7234 6.61412 10.6348 6.07024C10.5461 5.52635 10.2912 5.02328 9.90493 4.63022C9.51869 4.23715 9.02018 3.9734 8.47792 3.87522Z" fill="#E35131"/>
<path d="M8.66658 12.4997C8.66658 12.1315 8.36811 11.833 7.99992 11.833C7.63173 11.833 7.33325 12.1315 7.33325 12.4997C7.33325 12.8679 7.63173 13.1663 7.99992 13.1663C8.36811 13.1663 8.66658 12.8679 8.66658 12.4997Z" fill="#E35131"/>
</g>
<defs>
<clipPath id="clip0_941_9781">
<rect width="16" height="16" fill="white" transform="translate(0 0.5)"/>
</clipPath>
</defs>
</svg>
