<svg width="12" height="12" viewBox="0 0 12 12" fill="none" xmlns="http://www.w3.org/2000/svg">
<path fill-rule="evenodd" clip-rule="evenodd" d="M5.35686 1.01376C5.59857 1.20153 5.64756 1.55672 5.46628 1.80708L2.4301 6.00039L5.46628 10.1937C5.64756 10.4441 5.59857 10.7992 5.35687 10.987C5.11516 11.1748 4.77226 11.1241 4.59098 10.8737L1.30863 6.34039C1.16275 6.13891 1.16275 5.86187 1.30863 5.66039L4.59098 1.12709C4.77226 0.876721 5.11516 0.82598 5.35686 1.01376Z" fill="#B4B4AF"/>
<path fill-rule="evenodd" clip-rule="evenodd" d="M9.95216 0.900457C10.2543 0.900457 10.4992 1.15416 10.4992 1.46712L10.4992 10.5337C10.4992 10.8467 10.2543 11.1004 9.95216 11.1004C9.65003 11.1004 9.4051 10.8467 9.4051 10.5337L9.4051 1.46712C9.4051 1.15416 9.65003 0.900457 9.95216 0.900457ZM7.76393 0.900457C8.06606 0.900457 8.31098 1.15416 8.31098 1.46712L8.31098 10.5337C8.31098 10.8467 8.06606 11.1004 7.76393 11.1004C7.46179 11.1004 7.21687 10.8467 7.21687 10.5337L7.21687 1.46712C7.21687 1.15416 7.46179 0.900457 7.76393 0.900457Z" fill="#B4B4AF"/>
</svg>
