<svg width="41" height="40" viewBox="0 0 41 40" fill="none" xmlns="http://www.w3.org/2000/svg">
<g clip-path="url(#clip0_19_5177)">
<path d="M0.521488 8.33333L0.521484 31.6667C0.524128 33.876 1.40295 35.9941 2.96518 37.5563C4.52741 39.1185 6.64549 39.9974 8.85482 40L32.1882 40C34.3975 39.9974 36.5156 39.1185 38.0778 37.5563C39.64 35.9941 40.5188 33.876 40.5215 31.6667L40.5215 8.33334C40.5188 6.12401 39.64 4.00594 38.0778 2.44371C36.5156 0.881475 34.3975 0.0026509 32.1882 4.07973e-06L8.85482 0C6.6455 0.00264604 4.52742 0.881469 2.96519 2.4437C1.40296 4.00593 0.524132 6.12401 0.521488 8.33333ZM37.1882 31.6667C37.1882 32.9928 36.6614 34.2645 35.7237 35.2022C34.786 36.1399 33.5142 36.6667 32.1882 36.6667L8.85482 36.6667C7.52874 36.6667 6.25697 36.1399 5.31928 35.2022C4.3816 34.2645 3.85482 32.9928 3.85482 31.6667L3.85482 8.33333C3.85482 7.00725 4.3816 5.73548 5.31929 4.7978C6.25697 3.86012 7.52874 3.33333 8.85482 3.33333L32.1882 3.33334C33.5142 3.33334 34.786 3.86012 35.7237 4.7978C36.6614 5.73549 37.1882 7.00726 37.1882 8.33334L37.1882 31.6667ZM13.8548 20C13.8536 21.22 14.2995 22.3982 15.1082 23.3117C15.5932 23.8567 16.0648 24.3733 16.4032 24.7117L21.1098 29.5C21.2605 29.6665 21.4433 29.8007 21.6472 29.8948C21.8511 29.9888 22.0719 30.0407 22.2963 30.0473C22.5208 30.0539 22.7442 30.0151 22.9533 29.9332C23.1623 29.8513 23.3527 29.728 23.5129 29.5707C23.6732 29.4134 23.7999 29.2253 23.8857 29.0178C23.9714 28.8103 24.0143 28.5876 24.0119 28.363C24.0094 28.1385 23.9616 27.9168 23.8713 27.7112C23.781 27.5056 23.6501 27.3204 23.4865 27.1667L18.7715 22.3667C18.4598 22.0533 18.0365 21.5867 17.6048 21.1017C17.3363 20.7972 17.1881 20.4052 17.1881 19.9992C17.1881 19.5932 17.3363 19.2011 17.6048 18.8967C18.0348 18.4133 18.4582 17.9467 18.7598 17.6433L23.4865 12.8333C23.6501 12.6796 23.781 12.4944 23.8713 12.2888C23.9616 12.0832 24.0094 11.8615 24.0119 11.637C24.0143 11.4124 23.9714 11.1897 23.8857 10.9822C23.7999 10.7747 23.6732 10.5866 23.5129 10.4293C23.3527 10.272 23.1623 10.1487 22.9533 10.0668C22.7442 9.98491 22.5208 9.94609 22.2963 9.95269C22.0719 9.95929 21.8511 10.0112 21.6472 10.1052C21.4433 10.1993 21.2605 10.3336 21.1098 10.5L16.3948 15.2983C16.0615 15.6317 15.5948 16.1433 15.1132 16.6867C14.3019 17.5996 13.8541 18.7787 13.8548 20Z" fill="#777674"/>
</g>
<defs>
<clipPath id="clip0_19_5177">
<rect width="40" height="40" fill="white" transform="matrix(1 0 0 -1 0.521484 40)"/>
</clipPath>
</defs>
</svg>
