<svg width="24" height="25" viewBox="0 0 24 25" fill="none" xmlns="http://www.w3.org/2000/svg">
<g clip-path="url(#clip0_917_85928)">
<path d="M14.5977 -0.0996094C15.0328 -0.0996094 15.3711 0.282535 15.3711 0.735352V2.04883H21.9805C23.1574 2.04884 24.0996 3.09144 24.0996 4.35449V22.7939C24.0996 24.057 23.1574 25.0996 21.9805 25.0996H3.01953C1.84261 25.0996 0.900391 24.057 0.900391 22.7939V4.35449C0.900391 3.09144 1.84261 2.04884 3.01953 2.04883H9.74023V0.735352C9.74023 0.282584 10.0786 -0.0995255 10.5137 -0.0996094H14.5977ZM3.01953 3.71875C2.7117 3.71876 2.44629 3.9958 2.44629 4.35449V22.7939C2.44629 23.1526 2.7117 23.4297 3.01953 23.4297H21.9805C22.2883 23.4297 22.5537 23.1526 22.5537 22.7939V4.35449C22.5537 3.9958 22.2883 3.71876 21.9805 3.71875H15.3711V4.19141C15.371 5.87329 14.1161 7.25684 12.5557 7.25684C10.9953 7.25675 9.74035 5.87324 9.74023 4.19141V3.71875H3.01953ZM11.2871 4.19141C11.2872 4.96887 11.8644 5.58585 12.5557 5.58594C13.247 5.58594 13.8241 4.96892 13.8242 4.19141V1.57031H11.2871V4.19141Z" fill="#4F4D4A" stroke="#4F4D4A" stroke-width="0.2"/>
<path d="M12 8.77734C13.4669 8.77755 14.6552 10.0019 14.6553 11.502C14.6553 12.0587 14.4896 12.5758 14.209 13.0078C15.1062 13.5503 15.7099 14.5508 15.71 15.6934V17.5928C15.7099 18.0458 15.3508 18.418 14.9033 18.418H9.0957C8.64819 18.418 8.29012 18.0458 8.29004 17.5928V15.6934C8.29014 14.5508 8.89287 13.5503 9.79004 13.0078C9.50942 12.5758 9.34375 12.0587 9.34375 11.502C9.34382 10.0018 10.5329 8.77734 12 8.77734ZM11.3262 14.2275C10.5432 14.2278 9.90153 14.8826 9.90137 15.6934V16.7676H14.0977V15.6934C14.0975 14.8825 13.4559 14.2276 12.6729 14.2275H11.3262ZM12 10.4268C11.4268 10.4268 10.9552 10.9067 10.9551 11.502C10.9551 12.0973 11.4268 12.5771 12 12.5771C12.5731 12.5769 13.0439 12.0971 13.0439 11.502C13.0439 10.9068 12.573 10.427 12 10.4268Z" fill="#4F4D4A" stroke="#4F4D4A" stroke-width="0.2"/>
<path d="M15.4238 19.9502C15.8713 19.9502 16.2293 20.3215 16.2295 20.7744C16.2295 21.2275 15.8714 21.5996 15.4238 21.5996H8.57715C8.12959 21.5996 7.77148 21.2275 7.77148 20.7744C7.77167 20.3215 8.1297 19.9502 8.57715 19.9502H15.4238Z" fill="#4F4D4A" stroke="#4F4D4A" stroke-width="0.2"/>
</g>
<defs>
<clipPath id="clip0_917_85928">
<rect width="24" height="25" fill="white"/>
</clipPath>
</defs>
</svg>
