<svg width="16" height="16" viewBox="0 0 16 16" fill="none" xmlns="http://www.w3.org/2000/svg">
<path fill-rule="evenodd" clip-rule="evenodd" d="M6.89135 2.13337C7.17571 2.35428 7.23334 2.77215 7.02007 3.0667L3.4481 8L7.02007 12.9333C7.23334 13.2278 7.17571 13.6457 6.89135 13.8666C6.60699 14.0875 6.20358 14.0278 5.99031 13.7333L2.12872 8.4C1.95709 8.16296 1.95709 7.83704 2.12872 7.6L5.99031 2.2667C6.20358 1.97215 6.60699 1.91246 6.89135 2.13337Z" fill="#B4B4AF"/>
<path fill-rule="evenodd" clip-rule="evenodd" d="M12.2976 2.00008C12.653 2.00008 12.9412 2.29855 12.9412 2.66674L12.9412 13.3333C12.9412 13.7015 12.653 14 12.2976 14C11.9421 14 11.654 13.7015 11.654 13.3333L11.654 2.66674C11.654 2.29855 11.9421 2.00008 12.2976 2.00008ZM9.72319 2.00008C10.0786 2.00008 10.3668 2.29855 10.3668 2.66674L10.3668 13.3333C10.3668 13.7015 10.0786 14 9.72318 14C9.36773 14 9.07958 13.7015 9.07958 13.3333L9.07959 2.66674C9.07959 2.29855 9.36774 2.00008 9.72319 2.00008Z" fill="#B4B4AF"/>
</svg>
