<svg width="16" height="16" viewBox="0 0 16 16" fill="none" xmlns="http://www.w3.org/2000/svg">
<g clip-path="url(#clip0_1093_49963)">
<path d="M15.5059 10.8L13.7726 4.55264C13.4025 3.21625 12.596 2.04207 11.4815 1.21696C10.367 0.391861 9.00848 -0.036745 7.62226 -0.00063856C6.23603 0.0354679 4.90171 0.534212 3.83167 1.41621C2.76162 2.29822 2.01734 3.5128 1.71728 4.86664L0.37661 10.9C0.311739 11.1923 0.313321 11.4954 0.381241 11.787C0.44916 12.0786 0.581683 12.3512 0.769033 12.5848C0.956383 12.8183 1.19378 13.0068 1.46371 13.1364C1.73363 13.2659 2.0292 13.3332 2.32861 13.3333H4.73328C4.88629 14.0868 5.2951 14.7643 5.89044 15.2509C6.48578 15.7375 7.23104 16.0033 7.99994 16.0033C8.76885 16.0033 9.51411 15.7375 10.1094 15.2509C10.7048 14.7643 11.1136 14.0868 11.2666 13.3333H13.5799C13.888 13.3332 14.1919 13.2619 14.4679 13.1249C14.7438 12.988 14.9845 12.7892 15.171 12.544C15.3574 12.2988 15.4848 12.0138 15.543 11.7113C15.6012 11.4088 15.5888 11.0969 15.5066 10.8H15.5059ZM7.99994 14.6666C7.58777 14.6649 7.18619 14.5359 6.85014 14.2972C6.5141 14.0586 6.26 13.7219 6.12261 13.3333H9.87728C9.73989 13.7219 9.48579 14.0586 9.14974 14.2972C8.8137 14.5359 8.41212 14.6649 7.99994 14.6666ZM14.1099 11.7366C14.0478 11.8191 13.9671 11.8859 13.8745 11.9316C13.7819 11.9773 13.6799 12.0007 13.5766 12H2.32861C2.22878 12 2.13024 11.9775 2.04024 11.9343C1.95025 11.8911 1.8711 11.8283 1.80865 11.7504C1.74619 11.6725 1.70202 11.5816 1.6794 11.4844C1.65678 11.3872 1.65628 11.2861 1.67794 11.1886L3.01861 5.15531C3.25485 4.09278 3.83948 3.13971 4.67958 2.4476C5.51968 1.7555 6.56703 1.36409 7.65513 1.33558C8.74323 1.30708 9.80963 1.64312 10.6848 2.29028C11.56 2.93745 12.1937 3.8586 12.4853 4.90731L14.2186 11.1546C14.2469 11.2534 14.2518 11.3574 14.233 11.4585C14.2141 11.5595 14.172 11.6547 14.1099 11.7366Z" fill="#777674"/>
</g>
<defs>
<clipPath id="clip0_1093_49963">
<rect width="16" height="16" fill="white"/>
</clipPath>
</defs>
</svg>
