<svg width="20" height="20" viewBox="0 0 20 20" fill="none" xmlns="http://www.w3.org/2000/svg">
<g clip-path="url(#clip0_597_15254)">
<path d="M19.1663 20L9.99967 10.8775L0.833008 20V2.5C0.833008 1.83696 1.0964 1.20107 1.56524 0.732233C2.03408 0.263392 2.66997 0 3.33301 0L16.6663 0C17.3294 0 17.9653 0.263392 18.4341 0.732233C18.9029 1.20107 19.1663 1.83696 19.1663 2.5V20ZM9.99967 8.52667L17.4997 15.9875V2.5C17.4997 2.27899 17.4119 2.06702 17.2556 1.91074C17.0993 1.75446 16.8874 1.66667 16.6663 1.66667H3.33301C3.11199 1.66667 2.90003 1.75446 2.74375 1.91074C2.58747 2.06702 2.49967 2.27899 2.49967 2.5V15.9875L9.99967 8.52667Z" fill="#F9F8F7"/>
</g>
<defs>
<clipPath id="clip0_597_15254">
<rect width="20" height="20" fill="white"/>
</clipPath>
</defs>
</svg>
