<svg width="12" height="12" viewBox="0 0 12 12" fill="none" xmlns="http://www.w3.org/2000/svg">
<g clip-path="url(#clip0_3450_63089)">
<path d="M11 5.00013V2.11463C11.001 1.82044 10.9151 1.53251 10.753 1.28699C10.5909 1.04147 10.3599 0.849305 10.089 0.734626C8.2525 -0.215374 3.742 -0.211874 1.9105 0.734626C1.63967 0.849382 1.40878 1.04158 1.24679 1.28709C1.08481 1.5326 0.998952 1.82049 1 2.11463V5.00013H0V6.50013C0 6.76534 0.105357 7.0197 0.292893 7.20723C0.48043 7.39477 0.734783 7.50013 1 7.50013V11.0001H2V12.0001H4.5V11.0001H7.5V12.0001H10V11.0001H11V7.50013C11.2652 7.50013 11.5196 7.39477 11.7071 7.20723C11.8946 7.0197 12 6.76534 12 6.50013V5.00013H11ZM6.5 6.50013V3.50013H10V6.50013H6.5ZM2 6.50013V3.50013H5.5V6.50013H2ZM2.3 1.65613C3.4774 1.19345 4.7353 0.970432 6 1.00013C7.26471 0.970257 8.52264 1.19329 9.7 1.65613C9.78967 1.69441 9.86601 1.75838 9.91939 1.83997C9.97278 1.92156 10.0008 2.01713 10 2.11463V2.50013H2V2.11463C1.99924 2.01714 2.02731 1.9216 2.08069 1.84003C2.13407 1.75845 2.21037 1.69447 2.3 1.65613ZM2 10.0001V7.50013H3V8.00013C3 8.13273 3.05268 8.25991 3.14645 8.35368C3.24021 8.44745 3.36739 8.50013 3.5 8.50013C3.63261 8.50013 3.75978 8.44745 3.85355 8.35368C3.94732 8.25991 4 8.13273 4 8.00013V7.50013H8V8.00013C8 8.13273 8.05268 8.25991 8.14644 8.35368C8.24021 8.44745 8.36739 8.50013 8.5 8.50013C8.63261 8.50013 8.75978 8.44745 8.85355 8.35368C8.94732 8.25991 9 8.13273 9 8.00013V7.50013H10V10.0001H2Z" fill="#B4B4AF"/>
</g>
<defs>
<clipPath id="clip0_3450_63089">
<rect width="12" height="12" fill="white"/>
</clipPath>
</defs>
</svg>
