<svg width="20" height="20" viewBox="0 0 20 20" fill="none" xmlns="http://www.w3.org/2000/svg">
<g clip-path="url(#clip0_6_13941)">
<path d="M15.8333 0H4.16667C3.062 0.00132321 2.00296 0.440735 1.22185 1.22185C0.440735 2.00296 0.00132321 3.062 0 4.16667L0 15.8333C0.00132321 16.938 0.440735 17.997 1.22185 18.7782C2.00296 19.5593 3.062 19.9987 4.16667 20H15.8333C16.938 19.9987 17.997 19.5593 18.7782 18.7782C19.5593 17.997 19.9987 16.938 20 15.8333V4.16667C19.9987 3.062 19.5593 2.00296 18.7782 1.22185C17.997 0.440735 16.938 0.00132321 15.8333 0V0ZM10.8333 18.3333V17.0117L17.0117 10.8333H18.3333V12.155L12.155 18.3333H10.8333ZM10.8333 10.8333H14.655L10.8333 14.655V10.8333ZM18.3333 4.16667V9.16667H10.8333V1.66667H15.8333C16.4964 1.66667 17.1323 1.93006 17.6011 2.3989C18.0699 2.86774 18.3333 3.50363 18.3333 4.16667ZM1.66667 9.16667V7.845L7.845 1.66667H9.16667V2.98833L2.98833 9.16667H1.66667ZM9.16667 5.345V9.16667H5.345L9.16667 5.345ZM4.16667 1.66667H5.48833L1.66667 5.48833V4.16667C1.66667 3.50363 1.93006 2.86774 2.3989 2.3989C2.86774 1.93006 3.50363 1.66667 4.16667 1.66667ZM1.66667 15.8333V10.8333H9.16667V18.3333H4.16667C3.50363 18.3333 2.86774 18.0699 2.3989 17.6011C1.93006 17.1323 1.66667 16.4964 1.66667 15.8333ZM15.8333 18.3333H14.5117L18.3333 14.5117V15.8333C18.3333 16.4964 18.0699 17.1323 17.6011 17.6011C17.1323 18.0699 16.4964 18.3333 15.8333 18.3333Z" fill="#B4B2AF"/>
</g>
<defs>
<clipPath id="clip0_6_13941">
<rect width="20" height="20" fill="white"/>
</clipPath>
</defs>
</svg>
