<svg width="41" height="41" viewBox="0 0 41 41" fill="none" xmlns="http://www.w3.org/2000/svg">
<g clip-path="url(#clip0_4342_2066)">
<path d="M18.8341 40.4505C13.9851 40.4505 9.33463 38.5242 5.90584 35.0954C2.47705 31.6666 0.550781 27.0162 0.550781 22.1671C0.550781 17.3181 2.47705 12.6676 5.90584 9.23885C9.33463 5.81006 13.9851 3.88379 18.8341 3.88379H20.5008L20.5224 5.55046L20.5008 20.5005H37.1174V22.1671C37.1121 27.0145 35.1842 31.6619 31.7565 35.0895C28.3289 38.5172 23.6815 40.4452 18.8341 40.4505ZM17.1874 7.30879C14.3891 7.61918 11.7352 8.7135 9.53137 10.4658C7.32754 12.218 5.66333 14.557 4.7303 17.2135C3.79728 19.87 3.63338 22.7359 4.25746 25.4814C4.88154 28.2269 6.26824 30.7404 8.25793 32.7325C10.2476 34.7246 12.7594 36.1143 15.5042 36.7418C18.2489 37.3692 21.1151 37.2087 23.7727 36.2789C26.4302 35.3491 28.7712 33.6877 30.5262 31.486C32.2811 29.2843 33.3787 26.6318 33.6924 23.8338H17.1674L17.1874 7.30879Z" fill="#F36A1D"/>
<path d="M27.1976 4.31331C29.487 4.91226 31.5757 6.10973 33.2494 7.78276C34.923 9.4558 36.1212 11.5441 36.7209 13.8333H27.1976V4.31331ZM23.8643 0.556641V17.1666H40.4776C40.4561 12.7674 38.6988 8.55458 35.5877 5.44415C32.4767 2.33372 28.2635 0.577234 23.8643 0.556641Z" fill="#F36A1D"/>
</g>
<defs>
<clipPath id="clip0_4342_2066">
<rect width="40" height="40" fill="white" transform="translate(0.5 0.5)"/>
</clipPath>
</defs>
</svg>
