<svg width="40" height="40" viewBox="0 0 40 40" fill="none" xmlns="http://www.w3.org/2000/svg">
<g clip-path="url(#clip0_26_13849)">
<path d="M29.6526 12.0202C28.9119 8.83567 27.027 6.03428 24.3561 4.14851C21.6852 2.26274 18.4146 1.42406 15.1658 1.79189C11.917 2.15973 8.91667 3.70842 6.73501 6.14361C4.55334 8.57879 3.34248 11.7307 3.33258 15.0002C3.33014 17.131 3.84487 19.2305 4.83258 21.1185C3.03445 22.0821 1.60991 23.6189 0.785275 25.4849C-0.0393597 27.3508 -0.216782 29.4388 0.281196 31.4171C0.779173 33.3954 1.92399 35.1506 3.53375 36.4037C5.14351 37.6569 7.12589 38.3361 9.16591 38.3335H19.9992V35.0002H9.16591C7.74662 35.0044 6.37471 34.4898 5.30844 33.553C4.24216 32.6163 3.55505 31.3221 3.37643 29.9141C3.19782 28.5061 3.54002 27.0813 4.33863 25.908C5.13724 24.7347 6.33718 23.8938 7.71258 23.5435L10.1076 22.9252L8.63591 20.9369C7.35514 19.2228 6.66398 17.1399 6.66591 15.0002C6.68492 12.4768 7.65722 10.054 9.38781 8.21746C11.1184 6.38095 13.4793 5.26661 15.9971 5.09792C18.5149 4.92922 21.0034 5.71864 22.9635 7.30787C24.9236 8.89709 26.2104 11.1686 26.5659 13.6669L26.7326 14.9302L27.9942 15.0969C30.2209 15.3887 32.2841 16.4227 33.8505 18.0319C35.4169 19.6411 36.3951 21.7313 36.6269 23.965C36.8587 26.1987 36.3306 28.4453 35.128 30.3418C33.9254 32.2384 32.1185 33.674 29.9992 34.4169V37.8952C32.8898 37.1518 35.4468 35.4588 37.2598 33.0879C39.0728 30.7171 40.0367 27.8058 39.9967 24.8214C39.9567 21.8371 38.9152 18.9527 37.0393 16.6312C35.1635 14.3098 32.562 12.6859 29.6526 12.0202Z" fill="#777674"/>
<path d="M30.4881 29.5121L32.8448 27.1554L27.3564 21.6671C26.7313 21.0422 25.8837 20.6912 24.9998 20.6912C24.1159 20.6912 23.2682 21.0422 22.6431 21.6671L17.1548 27.1554L19.5114 29.5121L23.3331 25.6905V40.0005H26.6664V25.6905L30.4881 29.5121Z" fill="#777674"/>
</g>
<defs>
<clipPath id="clip0_26_13849">
<rect width="40" height="40" fill="white"/>
</clipPath>
</defs>
</svg>
