<svg width="12" height="12" viewBox="0 0 12 12" fill="none" xmlns="http://www.w3.org/2000/svg">
<g clip-path="url(#clip0_3450_63077)">
<path d="M12 6.5C12 6.10218 11.842 5.72065 11.5607 5.43934C11.2794 5.15804 10.8978 5 10.5 5H10.261L7.92 1.6425C7.78183 1.44419 7.59779 1.28221 7.38354 1.17034C7.1693 1.05848 6.93119 1.00004 6.6895 1H3.1895C2.88541 1.00125 2.5888 1.09441 2.33859 1.26725C2.08839 1.44009 1.89629 1.68453 1.7875 1.9685L0.487501 5.3925C0.333642 5.53301 0.21081 5.70409 0.126865 5.8948C0.0429193 6.08551 -0.00029004 6.29164 1.46516e-06 6.5V9H1V9.25C1 9.71413 1.18438 10.1593 1.51256 10.4874C1.84075 10.8156 2.28587 11 2.75 11C3.21413 11 3.65925 10.8156 3.98744 10.4874C4.31563 10.1593 4.5 9.71413 4.5 9.25V9H7.5V9.25C7.5 9.71413 7.68437 10.1593 8.01256 10.4874C8.34075 10.8156 8.78587 11 9.25 11C9.71413 11 10.1592 10.8156 10.4874 10.4874C10.8156 10.1593 11 9.71413 11 9.25V9H12V6.5ZM7.1 2.214L9.042 5H5.5V2H6.6895C6.77011 1.99994 6.84953 2.01937 6.92101 2.05663C6.99249 2.09389 7.05389 2.14788 7.1 2.214ZM2.7235 2.3225C2.75948 2.22775 2.82341 2.14617 2.90681 2.08857C2.99021 2.03098 3.08915 2.00009 3.1905 2H4.5V5H1.708L2.7235 2.3225ZM3.5 9.25C3.5 9.44891 3.42098 9.63968 3.28033 9.78033C3.13968 9.92098 2.94891 10 2.75 10C2.55109 10 2.36032 9.92098 2.21967 9.78033C2.07902 9.63968 2 9.44891 2 9.25V9H3.5V9.25ZM10 9.25C10 9.44891 9.92098 9.63968 9.78033 9.78033C9.63968 9.92098 9.44891 10 9.25 10C9.05109 10 8.86032 9.92098 8.71967 9.78033C8.57902 9.63968 8.5 9.44891 8.5 9.25V9H10V9.25ZM11 8H1V6.5C1 6.36739 1.05268 6.24022 1.14645 6.14645C1.24022 6.05268 1.36739 6 1.5 6H10.5C10.6326 6 10.7598 6.05268 10.8536 6.14645C10.9473 6.24022 11 6.36739 11 6.5V8Z" fill="#B4B4AF"/>
</g>
<defs>
<clipPath id="clip0_3450_63077">
<rect width="12" height="12" fill="white"/>
</clipPath>
</defs>
</svg>
