<svg width="12" height="12" viewBox="0 0 12 12" fill="none" xmlns="http://www.w3.org/2000/svg">
<g clip-path="url(#clip0_3450_63083)">
<path d="M2.5 11.5C2.00555 11.5 1.5222 11.3534 1.11108 11.0787C0.699953 10.804 0.379521 10.4135 0.190302 9.95671C0.00108321 9.4999 -0.0484251 8.99723 0.0480379 8.51228C0.144501 8.02732 0.382603 7.58187 0.732234 7.23223C1.08187 6.8826 1.52732 6.6445 2.01228 6.54804C2.49723 6.45157 2.99989 6.50108 3.45671 6.6903C3.91353 6.87952 4.30397 7.19995 4.57868 7.61108C4.85338 8.0222 5 8.50555 5 9C4.99921 9.6628 4.73556 10.2982 4.26689 10.7669C3.79822 11.2356 3.1628 11.4992 2.5 11.5ZM2.5 7.5C2.20333 7.5 1.91332 7.58798 1.66665 7.7528C1.41997 7.91762 1.22771 8.15189 1.11418 8.42598C1.00065 8.70007 0.970945 9.00167 1.02882 9.29264C1.0867 9.58361 1.22956 9.85088 1.43934 10.0607C1.64912 10.2704 1.91639 10.4133 2.20737 10.4712C2.49834 10.5291 2.79994 10.4994 3.07403 10.3858C3.34812 10.2723 3.58238 10.08 3.74721 9.83336C3.91203 9.58668 4 9.29667 4 9C4 8.60218 3.84197 8.22065 3.56066 7.93934C3.27936 7.65804 2.89783 7.5 2.5 7.5ZM9.5 11.5C9.00555 11.5 8.5222 11.3534 8.11108 11.0787C7.69995 10.804 7.37952 10.4135 7.1903 9.95671C7.00108 9.4999 6.95158 8.99723 7.04804 8.51228C7.1445 8.02732 7.3826 7.58187 7.73223 7.23223C8.08187 6.8826 8.52732 6.6445 9.01228 6.54804C9.49723 6.45157 9.9999 6.50108 10.4567 6.6903C10.9135 6.87952 11.304 7.19995 11.5787 7.61108C11.8534 8.0222 12 8.50555 12 9C11.9992 9.6628 11.7356 10.2982 11.2669 10.7669C10.7982 11.2356 10.1628 11.4992 9.5 11.5ZM9.5 7.5C9.20333 7.5 8.91332 7.58798 8.66665 7.7528C8.41997 7.91762 8.22771 8.15189 8.11418 8.42598C8.00065 8.70007 7.97095 9.00167 8.02882 9.29264C8.0867 9.58361 8.22956 9.85088 8.43934 10.0607C8.64912 10.2704 8.91639 10.4133 9.20737 10.4712C9.49834 10.5291 9.79994 10.4994 10.074 10.3858C10.3481 10.2723 10.5824 10.08 10.7472 9.83336C10.912 9.58668 11 9.29667 11 9C11 8.60218 10.842 8.22065 10.5607 7.93934C10.2794 7.65804 9.89783 7.5 9.5 7.5ZM6.5 6.77L5.1825 5.6385C5.12853 5.5927 5.08505 5.53581 5.05503 5.47171C5.025 5.4076 5.00913 5.33779 5.0085 5.267C5.00621 5.20172 5.01716 5.13665 5.04071 5.07573C5.06426 5.0148 5.0999 4.95927 5.1455 4.9125L6.127 4.1305C6.22589 4.04176 6.35577 3.99556 6.48848 4.00193C6.6212 4.00829 6.74606 4.0667 6.836 4.1645L8.2785 5.5H10V4.5H8.67L7.5315 3.446C7.26476 3.17189 6.90269 3.01105 6.52047 2.9969C6.13826 2.98274 5.76528 3.11636 5.479 3.37L4.497 4.15C4.34025 4.29314 4.21566 4.46791 4.13146 4.66278C4.04727 4.85764 4.0054 5.06815 4.00862 5.2804C4.01183 5.49265 4.06006 5.7018 4.15011 5.89403C4.24016 6.08625 4.36998 6.25718 4.531 6.3955L5.5 7.2295V9.5H6.5V6.77ZM8.25 0.5C8.00278 0.5 7.7611 0.573311 7.55554 0.710663C7.34998 0.848015 7.18976 1.04324 7.09515 1.27165C7.00054 1.50005 6.97579 1.75139 7.02402 1.99386C7.07225 2.23634 7.1913 2.45907 7.36612 2.63388C7.54093 2.8087 7.76366 2.92775 8.00614 2.97598C8.24862 3.02421 8.49995 2.99946 8.72836 2.90485C8.95676 2.81024 9.15199 2.65002 9.28934 2.44446C9.42669 2.2389 9.5 1.99723 9.5 1.75C9.5 1.41848 9.36831 1.10054 9.13389 0.866117C8.89946 0.631696 8.58152 0.5 8.25 0.5Z" fill="#B4B4AF"/>
</g>
<defs>
<clipPath id="clip0_3450_63083">
<rect width="12" height="12" fill="white"/>
</clipPath>
</defs>
</svg>
