<svg width="40" height="40" viewBox="0 0 40 40" fill="none" xmlns="http://www.w3.org/2000/svg">
<g clip-path="url(#clip0_26_13891)">
<path d="M20 0C16.0444 0 12.1776 1.17298 8.8886 3.37061C5.59962 5.56823 3.03617 8.69181 1.52242 12.3463C0.00866572 16.0009 -0.387401 20.0222 0.384303 23.9018C1.15601 27.7814 3.06082 31.3451 5.85787 34.1421C8.65492 36.9392 12.2186 38.844 16.0982 39.6157C19.9778 40.3874 23.9992 39.9913 27.6537 38.4776C31.3082 36.9638 34.4318 34.4004 36.6294 31.1114C38.827 27.8224 40 23.9556 40 20C39.9943 14.6974 37.8853 9.61368 34.1358 5.8642C30.3863 2.11471 25.3026 0.00573513 20 0V0ZM20 35C17.0333 35 14.1332 34.1203 11.6665 32.472C9.19972 30.8238 7.27713 28.4811 6.14182 25.7402C5.0065 22.9994 4.70945 19.9834 5.28823 17.0736C5.86701 14.1639 7.29562 11.4912 9.39341 9.3934C11.4912 7.29561 14.1639 5.867 17.0737 5.28822C19.9834 4.70944 22.9994 5.00649 25.7403 6.14181C28.4812 7.27712 30.8238 9.19971 32.4721 11.6664C34.1203 14.1332 35 17.0333 35 20C34.9956 23.9769 33.4138 27.7896 30.6017 30.6017C27.7897 33.4138 23.9769 34.9956 20 35Z" fill="#777674"/>
</g>
<defs>
<clipPath id="clip0_26_13891">
<rect width="40" height="40" fill="white"/>
</clipPath>
</defs>
</svg>
