<svg width="20" height="20" viewBox="0 0 20 20" fill="none" xmlns="http://www.w3.org/2000/svg">
<g clip-path="url(#clip0_597_8911)">
<path d="M10 0C8.02219 0 6.08879 0.58649 4.4443 1.6853C2.79981 2.78412 1.51809 4.3459 0.761209 6.17316C0.00433286 8.00043 -0.193701 10.0111 0.192152 11.9509C0.578004 13.8907 1.53041 15.6725 2.92894 17.0711C4.32746 18.4696 6.10929 19.422 8.0491 19.8078C9.98891 20.1937 11.9996 19.9957 13.8268 19.2388C15.6541 18.4819 17.2159 17.2002 18.3147 15.5557C19.4135 13.9112 20 11.9778 20 10C20 7.34783 18.9464 4.8043 17.0711 2.92893C15.1957 1.05357 12.6522 0 10 0V0ZM18.2908 9.16667H10.8333V1.70917C12.7449 1.9038 14.5307 2.75203 15.8893 4.11068C17.248 5.46932 18.0962 7.25514 18.2908 9.16667ZM1.66667 10C1.66928 7.93495 2.43753 5.94423 3.82288 4.41281C5.20822 2.8814 7.11222 1.91808 9.16667 1.70917V10.345L15.27 16.4483C14.0499 17.4479 12.5709 18.0803 11.0054 18.272C9.43978 18.4637 7.85195 18.2068 6.4267 17.5312C5.00145 16.8556 3.7974 15.7891 2.95471 14.4558C2.11201 13.1225 1.66534 11.5773 1.66667 10ZM16.4483 15.27L12.0117 10.8333H18.2908C18.1283 12.4617 17.4872 14.0055 16.4483 15.27Z" fill="#F9F8F7"/>
</g>
<defs>
<clipPath id="clip0_597_8911">
<rect width="20" height="20" fill="white"/>
</clipPath>
</defs>
</svg>
