<svg width="20" height="20" viewBox="0 0 20 20" fill="none" xmlns="http://www.w3.org/2000/svg">
<g clip-path="url(#clip0_713_14908)">
<path d="M2.92898 2.92893C1.53046 4.32746 0.578047 6.10928 0.192195 8.04909C-0.193657 9.9889 0.00437689 11.9996 0.761253 13.8268C1.51813 15.6541 2.79985 17.2159 4.44435 18.3147C6.08884 19.4135 8.02223 20 10 20C11.9779 20 13.9113 19.4135 15.5557 18.3147C17.2002 17.2159 18.482 15.6541 19.2388 13.8268C19.9957 11.9996 20.1938 9.98891 19.8079 8.0491C19.422 6.10929 18.4696 4.32746 17.0711 2.92893C15.1943 1.05622 12.6513 0.00447684 10 0.00447701C7.34876 0.00447701 4.80575 1.05622 2.92898 2.92893ZM15.8926 15.8926C14.7272 17.058 13.2423 17.8517 11.6258 18.1732C10.0093 18.4947 8.33374 18.3297 6.81102 17.699C5.2883 17.0683 3.98681 16.0002 3.07113 14.6297C2.15546 13.2593 1.66671 11.6482 1.66671 10C1.66671 8.35182 2.15546 6.74065 3.07114 5.37025C3.98681 3.99984 5.2883 2.93173 6.81102 2.301C8.33374 1.67027 10.0093 1.50524 11.6258 1.82679C13.2423 2.14833 14.7272 2.942 15.8926 4.10744C17.4532 5.67143 18.3296 7.7906 18.3296 10C18.3296 12.2094 17.4532 14.3286 15.8926 15.8926ZM5.30427 13.5538C5.5461 13.8076 5.86369 13.9761 6.20939 14.0341C6.5551 14.0921 6.91029 14.0365 7.22171 13.8755L10.0036 12.6752L12.7666 13.8484C13.0799 14.0117 13.4373 14.0703 13.7864 14.0155C14.1354 13.9606 14.4577 13.7953 14.7058 13.5438L14.7141 13.5355C14.9724 13.2771 15.1382 12.9406 15.1855 12.5783C15.2328 12.2159 15.159 11.8481 14.9757 11.5321L10 3.04678L5.03498 11.5627C4.85469 11.878 4.78336 12.244 4.83205 12.6039C4.88073 12.9638 5.0467 13.2977 5.30427 13.5538ZM10 6.34661L13.5273 12.3653L9.99769 10.8615L6.56115 12.3441L6.48101 12.3912L10 6.34661Z" fill="#F9F8F7"/>
</g>
<defs>
<clipPath id="clip0_713_14908">
<rect width="20" height="20" fill="white"/>
</clipPath>
</defs>
</svg>
