<svg width="12" height="12" viewBox="0 0 12 12" fill="none" xmlns="http://www.w3.org/2000/svg">
<path d="M3.5 7.75C3.5 7.985 3.524 8.214 3.561 8.439C1.545 8.108 0 6.3585 0 4.25C0 1.9065 1.9065 0 4.25 0C6.3585 0 8.108 1.545 8.439 3.561C8.214 3.524 7.985 3.5 7.75 3.5C5.4065 3.5 3.5 5.4065 3.5 7.75ZM8.439 3.561C8.476 3.786 8.5 4.015 8.5 4.25C8.5 6.5935 6.5935 8.5 4.25 8.5C4.015 8.5 3.786 8.476 3.561 8.439C3.892 10.455 5.6415 12 7.75 12C10.0935 12 12 10.0935 12 7.75C12 5.6415 10.455 3.892 8.439 3.561Z" fill="#777674"/>
</svg>
