<svg width="14" height="14" viewBox="0 0 14 14" fill="none" xmlns="http://www.w3.org/2000/svg">
<g clip-path="url(#clip0_656_5377)">
<path d="M4.66667 0H1.75C1.28587 0 0.840752 0.184374 0.512563 0.512563C0.184374 0.840752 0 1.28587 0 1.75L0 4.66667H1.75L1.73775 6.41667L2.90442 6.4225L2.91667 4.66667H4.66667V2.90733L6.41667 2.91667L6.4225 1.75L4.66667 1.74067V0ZM3.5 3.5H1.16667V1.75C1.16667 1.59529 1.22812 1.44692 1.33752 1.33752C1.44692 1.22812 1.59529 1.16667 1.75 1.16667H3.5V3.5Z" fill="#E2E1DF"/>
<path d="M12.2497 0H9.33299V1.75L7.58591 1.74067L7.58008 2.90733L9.33299 2.91667V4.66667H11.0917L11.083 6.41667L12.2497 6.4225L12.2584 4.66667H13.9997V1.75C13.9997 1.28587 13.8153 0.840752 13.4871 0.512563C13.1589 0.184374 12.7138 0 12.2497 0ZM12.833 3.5H10.4997V1.16667H12.2497C12.4044 1.16667 12.5527 1.22812 12.6621 1.33752C12.7715 1.44692 12.833 1.59529 12.833 1.75V3.5Z" fill="#E2E1DF"/>
<path d="M12.2619 7.5864L11.0953 7.58057L11.0859 9.33348H9.33301V11.0928L7.58592 11.0835L7.58301 12.2501L9.33301 12.2595V14.0001H12.2497C12.7138 14.0001 13.1589 13.8158 13.4871 13.4876C13.8153 13.1594 13.9997 12.7143 13.9997 12.2501V9.33348H12.2497L12.2619 7.5864ZM12.833 12.2501C12.833 12.4049 12.7716 12.5532 12.6622 12.6626C12.5528 12.772 12.4044 12.8335 12.2497 12.8335H10.4997V10.5001H12.833V12.2501Z" fill="#E2E1DF"/>
<path d="M4.66667 9.3335H2.90792L2.91667 7.58641L1.75 7.5835L1.74125 9.3335H0V12.2502C0 12.7143 0.184374 13.1594 0.512563 13.4876C0.840752 13.8158 1.28587 14.0002 1.75 14.0002H4.66667V12.2502L6.41667 12.2624L6.4225 11.0957L4.66667 11.0864V9.3335ZM3.5 12.8335H1.75C1.59529 12.8335 1.44692 12.772 1.33752 12.6626C1.22812 12.5532 1.16667 12.4049 1.16667 12.2502V10.5002H3.5V12.8335Z" fill="#E2E1DF"/>
</g>
<defs>
<clipPath id="clip0_656_5377">
<rect width="14" height="14" fill="white"/>
</clipPath>
</defs>
</svg>
