<svg width="20" height="20" viewBox="0 0 20 20" fill="none" xmlns="http://www.w3.org/2000/svg">
<g clip-path="url(#clip0_4892_14146)">
<path d="M14.168 20H5.83464C3.53714 20 1.66797 18.1308 1.66797 15.8333V4.16667C1.66797 1.86917 3.53714 0 5.83464 0L14.168 0C16.4655 0 18.3346 1.86917 18.3346 4.16667V15.8333C18.3346 18.1308 16.4655 20 14.168 20ZM5.83464 1.66667C4.4563 1.66667 3.33464 2.78833 3.33464 4.16667V15.8333C3.33464 17.2117 4.4563 18.3333 5.83464 18.3333H14.168C15.5463 18.3333 16.668 17.2117 16.668 15.8333V4.16667C16.668 2.78833 15.5463 1.66667 14.168 1.66667H5.83464ZM15.0013 5C15.0013 4.54 14.628 4.16667 14.168 4.16667H10.8346C10.3746 4.16667 10.0013 4.54 10.0013 5C10.0013 5.46 10.3746 5.83333 10.8346 5.83333H14.168C14.628 5.83333 15.0013 5.46 15.0013 5ZM15.0013 10C15.0013 9.54 14.628 9.16667 14.168 9.16667H10.8346C10.3746 9.16667 10.0013 9.54 10.0013 10C10.0013 10.46 10.3746 10.8333 10.8346 10.8333H14.168C14.628 10.8333 15.0013 10.46 15.0013 10ZM15.0013 15C15.0013 14.54 14.628 14.1667 14.168 14.1667H10.8346C10.3746 14.1667 10.0013 14.54 10.0013 15C10.0013 15.46 10.3746 15.8333 10.8346 15.8333H14.168C14.628 15.8333 15.0013 15.46 15.0013 15ZM8.33464 5.83333V4.16667C8.33464 3.70667 7.9613 3.33333 7.5013 3.33333H5.83464C5.37464 3.33333 5.0013 3.70667 5.0013 4.16667V5.83333C5.0013 6.29333 5.37464 6.66667 5.83464 6.66667H7.5013C7.9613 6.66667 8.33464 6.29333 8.33464 5.83333ZM8.33464 10.8333V9.16667C8.33464 8.70667 7.9613 8.33333 7.5013 8.33333H5.83464C5.37464 8.33333 5.0013 8.70667 5.0013 9.16667V10.8333C5.0013 11.2933 5.37464 11.6667 5.83464 11.6667H7.5013C7.9613 11.6667 8.33464 11.2933 8.33464 10.8333ZM8.33464 15.8333V14.1667C8.33464 13.7067 7.9613 13.3333 7.5013 13.3333H5.83464C5.37464 13.3333 5.0013 13.7067 5.0013 14.1667V15.8333C5.0013 16.2933 5.37464 16.6667 5.83464 16.6667H7.5013C7.9613 16.6667 8.33464 16.2933 8.33464 15.8333Z" fill="#C3C3BF"/>
</g>
<defs>
<clipPath id="clip0_4892_14146">
<rect width="20" height="20" fill="white"/>
</clipPath>
</defs>
</svg>
