<svg width="14" height="14" viewBox="0 0 14 14" fill="none" xmlns="http://www.w3.org/2000/svg">
<g clip-path="url(#clip0_977_14387)">
<path d="M7.01845 11.0833C7.24835 11.0837 7.47605 11.0387 7.68848 10.9508C7.90091 10.8629 8.09388 10.7339 8.25629 10.5712L10.5424 8.28333L9.71754 7.46083L7.59829 9.58067L7.58312 0H6.41645L6.43162 9.57133L4.31995 7.45967L3.49512 8.28333L5.7812 10.5694C5.94342 10.7323 6.13623 10.8616 6.34855 10.9498C6.56088 11.038 6.78854 11.0834 7.01845 11.0833Z" fill="#B4B4AF"/>
<path d="M12.8333 9.33333V12.25C12.8333 12.4047 12.7719 12.5531 12.6625 12.6625C12.5531 12.7719 12.4047 12.8333 12.25 12.8333H1.75C1.59529 12.8333 1.44692 12.7719 1.33752 12.6625C1.22812 12.5531 1.16667 12.4047 1.16667 12.25V9.33333H0V12.25C0 12.7141 0.184374 13.1592 0.512563 13.4874C0.840752 13.8156 1.28587 14 1.75 14H12.25C12.7141 14 13.1592 13.8156 13.4874 13.4874C13.8156 13.1592 14 12.7141 14 12.25V9.33333H12.8333Z" fill="#B4B4AF"/>
</g>
<defs>
<clipPath id="clip0_977_14387">
<rect width="14" height="14" fill="white"/>
</clipPath>
</defs>
</svg>
