<svg width="14" height="14" viewBox="0 0 14 14" fill="none" xmlns="http://www.w3.org/2000/svg">
<g clip-path="url(#clip0_656_4366)">
<path d="M9.33333 5.85492L11.3517 3.5H14V0H10.5V1.16667H3.5V0H0V3.5H1.16667V10.5H0V14H3.5V12.8333H10.5V14H14V10.5H11.3517L9.33333 8.14508V5.85492ZM8.16667 6.41667V7.58333H7V6.41667H8.16667ZM11.6667 1.16667H12.8333V2.33333H11.6667V1.16667ZM1.16667 1.16667H2.33333V2.33333H1.16667V1.16667ZM2.33333 12.8333H1.16667V11.6667H2.33333V12.8333ZM3.5 11.6667V10.5H2.33333V3.5H3.5V2.33333H10.5V2.70083L8.31483 5.25H5.83333V8.75H8.31483L10.5 11.2992V11.6667H3.5ZM11.6667 11.6667H12.8333V12.8333H11.6667V11.6667Z" fill="#E2E1DF"/>
</g>
<defs>
<clipPath id="clip0_656_4366">
<rect width="14" height="14" fill="white"/>
</clipPath>
</defs>
</svg>
