<svg width="12" height="12" viewBox="0 0 12 12" fill="none" xmlns="http://www.w3.org/2000/svg">
<path d="M11.9104 5.5905C11.4714 4.6305 9.74993 1.5 5.99993 1.5C2.24994 1.5 0.528436 4.6305 0.0894356 5.5905C0.0305048 5.71915 0 5.85899 0 6.0005C0 6.142 0.0305048 6.28185 0.0894356 6.4105C0.528436 7.3695 2.24994 10.5 5.99993 10.5C9.74993 10.5 11.4714 7.3695 11.9104 6.4095C11.9692 6.28099 11.9997 6.14132 11.9997 6C11.9997 5.85867 11.9692 5.719 11.9104 5.5905ZM5.99993 9.5C2.84643 9.5 1.37494 6.817 0.999935 6.0055C1.37494 5.183 2.84643 2.5 5.99993 2.5C9.14593 2.5 10.6179 5.1715 10.9999 6C10.6179 6.8285 9.14593 9.5 5.99993 9.5Z" fill="#B4B2AF"/>
<path d="M6 3.5C5.50555 3.5 5.0222 3.64662 4.61108 3.92133C4.19995 4.19603 3.87952 4.58647 3.6903 5.04329C3.50108 5.5001 3.45157 6.00277 3.54804 6.48772C3.6445 6.97267 3.8826 7.41813 4.23223 7.76776C4.58187 8.11739 5.02732 8.35549 5.51228 8.45196C5.99723 8.54842 6.49989 8.49891 6.95671 8.30969C7.41352 8.12047 7.80397 7.80004 8.07868 7.38892C8.35338 6.9778 8.5 6.49445 8.5 6C8.49921 5.3372 8.23556 4.70178 7.76689 4.23311C7.29822 3.76444 6.6628 3.50079 6 3.5ZM6 7.49999C5.70333 7.49999 5.41332 7.41202 5.16665 7.2472C4.91997 7.08238 4.72771 6.84811 4.61418 6.57402C4.50065 6.29993 4.47095 5.99833 4.52882 5.70736C4.5867 5.41639 4.72956 5.14912 4.93934 4.93934C5.14912 4.72956 5.41639 4.5867 5.70737 4.52882C5.99834 4.47094 6.29994 4.50065 6.57403 4.61418C6.84812 4.72771 7.08238 4.91997 7.24721 5.16664C7.41203 5.41332 7.5 5.70332 7.5 6C7.5 6.39782 7.34197 6.77935 7.06066 7.06066C6.77936 7.34196 6.39783 7.49999 6 7.49999Z" fill="#B4B2AF"/>
</svg>
