<svg width="16" height="16" viewBox="0 0 16 16" fill="none" xmlns="http://www.w3.org/2000/svg">
<g clip-path="url(#clip0_91_12665)">
<path d="M15.4093 0.590654C14.6239 -0.195346 13.3459 -0.194679 12.5593 0.590654L10.2873 2.86199C9.39594 3.75399 7.97927 3.77399 7.0626 2.90865L6.13394 3.86532L7.48394 5.21532L1.34993 11.35C0.603934 12.096 0.469934 13.2253 0.947268 14.1093L-0.000732422 15.0573L0.941934 16L1.8886 15.0533C2.22593 15.236 2.6046 15.3333 2.99927 15.3333C3.6226 15.3333 4.2086 15.0907 4.64927 14.65L10.7839 8.51532L12.1339 9.86532L13.0906 8.93599C12.2259 8.01932 12.2466 6.60332 13.1379 5.71199L15.4093 3.44065C15.7899 3.06065 15.9999 2.55399 15.9999 2.01532C15.9999 1.47665 15.7906 0.971321 15.4093 0.590654ZM3.7066 13.7073C3.32993 14.0847 2.6706 14.0847 2.2926 13.7073C1.90327 13.3173 1.90327 12.6833 2.2926 12.2933L3.9186 10.6673H6.7466L3.70593 13.708L3.7066 13.7073ZM8.0806 9.33332H5.2526L8.42727 6.15799L9.84127 7.57199L8.07994 9.33265L8.0806 9.33332ZM14.4666 2.49799L12.1953 4.76932C11.5726 5.39199 11.2199 6.17599 11.1379 6.98265L9.0166 4.86132C9.82327 4.77932 10.6079 4.42665 11.2306 3.80399L13.5026 1.53265C13.7693 1.26732 14.2019 1.26732 14.4673 1.53265C14.5959 1.66132 14.6673 1.83265 14.6673 2.01532C14.6673 2.19799 14.5959 2.36865 14.4666 2.49799Z" fill="#B4B4AF"/>
</g>
<defs>
<clipPath id="clip0_91_12665">
<rect width="16" height="16" fill="white"/>
</clipPath>
</defs>
</svg>
