<svg width="14" height="14" viewBox="0 0 14 14" fill="none" xmlns="http://www.w3.org/2000/svg">
<g clip-path="url(#clip0_791_13936)">
<path d="M14 4.66667V1.16667C14 0.857247 13.8771 0.560501 13.6583 0.341709C13.4395 0.122916 13.1428 0 12.8333 0L9.33333 0V1.16667H12.0085L7 6.17517L1.9915 1.16667H4.66667V0H1.16667C0.857247 0 0.560501 0.122916 0.341709 0.341709C0.122916 0.560501 0 0.857247 0 1.16667L0 4.66667H1.16667V1.9915L6.17517 7L1.16667 12.0085V9.33333H0V12.8333C0 13.1428 0.122916 13.4395 0.341709 13.6583C0.560501 13.8771 0.857247 14 1.16667 14H4.66667V12.8333H1.9915L7 7.82483L12.0085 12.8333H9.33333V14H12.8333C13.1428 14 13.4395 13.8771 13.6583 13.6583C13.8771 13.4395 14 13.1428 14 12.8333V9.33333H12.8333V12.0085L7.82483 7L12.8333 1.9915V4.66667H14Z" fill="#B4B4AF"/>
</g>
<defs>
<clipPath id="clip0_791_13936">
<rect width="14" height="14" fill="white"/>
</clipPath>
</defs>
</svg>
