<svg width="12" height="12" viewBox="0 0 12 12" fill="none" xmlns="http://www.w3.org/2000/svg">
<g clip-path="url(#clip0_528_3386)">
<path d="M11.9104 5.59049C11.4274 4.54284 10.7198 3.61425 9.83793 2.87049L11.3539 1.35448L10.6464 0.646484L8.99993 2.29149C8.08861 1.76434 7.05269 1.49103 5.99993 1.49998C2.24994 1.49998 0.528436 4.63049 0.0894356 5.59049C0.0305048 5.71914 0 5.85898 0 6.00049C0 6.14199 0.0305048 6.28184 0.0894356 6.41049C0.572503 7.45813 1.28005 8.38673 2.16194 9.13049L0.646435 10.6465L1.35344 11.3535L2.99993 9.70849C3.91125 10.2356 4.94718 10.5089 5.99993 10.5C9.74993 10.5 11.4714 7.36949 11.9104 6.40949C11.9692 6.28098 11.9997 6.14131 11.9997 5.99999C11.9997 5.85866 11.9692 5.71899 11.9104 5.59049ZM0.999935 6.00549C1.37494 5.18299 2.84643 2.49999 5.99993 2.49999C6.78473 2.4954 7.55926 2.67849 8.25893 3.03399L7.37643 3.91649C6.8964 3.59779 6.32089 3.45498 5.74755 3.51231C5.17421 3.56963 4.63837 3.82355 4.23094 4.23099C3.8235 4.63842 3.56958 5.17427 3.51226 5.7476C3.45493 6.32094 3.59774 6.89645 3.91643 7.37649L2.87694 8.41599C2.07712 7.76468 1.43537 6.94053 0.999935 6.00549ZM7.49993 5.99999C7.49993 6.39781 7.3419 6.77934 7.06059 7.06065C6.77929 7.34195 6.39776 7.49999 5.99993 7.49999C5.77719 7.49913 5.55753 7.44784 5.35743 7.34999L7.34993 5.35749C7.44779 5.55759 7.49907 5.77724 7.49993 5.99999ZM4.49993 5.99999C4.49993 5.60216 4.65797 5.22063 4.93927 4.93933C5.22058 4.65802 5.60211 4.49999 5.99993 4.49999C6.22268 4.50085 6.44234 4.55213 6.64243 4.64999L4.64993 6.64249C4.55208 6.44239 4.5008 6.22273 4.49993 5.99999ZM5.99993 9.49999C5.21514 9.50458 4.44061 9.32149 3.74093 8.96599L4.62343 8.08349C5.10347 8.40219 5.67898 8.54499 6.25232 8.48766C6.82565 8.43034 7.3615 8.17642 7.76893 7.76899C8.17636 7.36155 8.43028 6.82571 8.48761 6.25237C8.54493 5.67903 8.40213 5.10352 8.08343 4.62349L9.12243 3.58449C9.92382 4.23639 10.5659 5.06251 10.9999 5.99999C10.6179 6.82849 9.14593 9.49999 5.99993 9.49999Z" fill="#B4B2AF"/>
</g>
<defs>
<clipPath id="clip0_528_3386">
<rect width="12" height="12" fill="white"/>
</clipPath>
</defs>
</svg>
