<svg width="16" height="16" viewBox="0 0 16 16" fill="none" xmlns="http://www.w3.org/2000/svg">
<path d="M14.6667 6H8.66667V10H14.6667C15.4 10 16 9.4 16 8.66667V7.33333C16 6.6 15.4 6 14.6667 6ZM14.6667 8.66667H10V7.33333H14.6667V8.66667ZM14.6667 0H8.66667V4H14.6667C15.4 4 16 3.4 16 2.66667V1.33333C16 0.6 15.4 0 14.6667 0ZM14.6667 2.66667H10V1.33333H14.6667V2.66667ZM14.6667 12H8.66667V16H14.6667C15.4 16 16 15.4 16 14.6667V13.3333C16 12.6 15.4 12 14.6667 12ZM14.6667 14.6667H10V13.3333H14.6667V14.6667ZM5.33333 8.66667H2C0.9 8.66667 0 9.56667 0 10.6667V16H7.33333V10.6667C7.33333 9.56667 6.43333 8.66667 5.33333 8.66667ZM6 14.6667H1.33333V10.6667C1.33333 10.3 1.63333 10 2 10H5.33333C5.7 10 6 10.3 6 10.6667V14.6667ZM5.33333 0H2C0.9 0 0 0.9 0 2V7.33333H7.33333V2C7.33333 0.9 6.43333 0 5.33333 0ZM6 6H1.33333V2C1.33333 1.63333 1.63333 1.33333 2 1.33333H5.33333C5.7 1.33333 6 1.63333 6 2V6Z" fill="#F36A1D"/>
</svg>
