<svg width="16" height="16" viewBox="0 0 16 16" fill="none" xmlns="http://www.w3.org/2000/svg">
<g clip-path="url(#clip0_1651_88136)">
<path d="M9.60803 0L3.33203 0C2.8016 0 2.29289 0.210714 1.91782 0.585786C1.54274 0.960859 1.33203 1.46957 1.33203 2V16H14.6654V5.05733L9.60803 0ZM9.9987 2.276L12.3894 4.66667H9.9987V2.276ZM2.66536 14.6667V2C2.66536 1.82319 2.7356 1.65362 2.86063 1.5286C2.98565 1.40357 3.15522 1.33333 3.33203 1.33333H8.66536V6H13.332V14.6667H2.66536ZM8.66536 9.33333H10.6654V10.6667H8.66536V12.6667H7.33203V10.6667H5.33203V9.33333H7.33203V7.33333H8.66536V9.33333Z" fill="#C3C3BF"/>
</g>
<defs>
<clipPath id="clip0_1651_88136">
<rect width="16" height="16" fill="white"/>
</clipPath>
</defs>
</svg>
