<svg width="12" height="12" viewBox="0 0 12 12" fill="none" xmlns="http://www.w3.org/2000/svg">
<g clip-path="url(#clip0_528_3491)">
<path d="M9.914 1.70689L8.793 0.585885C8.60768 0.399539 8.38724 0.251798 8.14444 0.151211C7.90165 0.0506243 7.64131 -0.000809905 7.3785 -0.000115124H3C2.60218 -0.000115124 2.22064 0.15792 1.93934 0.439225C1.65804 0.720529 1.5 1.10206 1.5 1.49989V11.9999H10.5V3.12089C10.4987 2.59074 10.2881 2.08255 9.914 1.70689ZM9.207 2.41389C9.23214 2.44117 9.25568 2.46988 9.2775 2.49989H8V1.22238C8.03 1.24421 8.05872 1.26775 8.086 1.29288L9.207 2.41389ZM2.5 10.9999V1.49989C2.5 1.36728 2.55268 1.2401 2.64645 1.14633C2.74022 1.05256 2.86739 0.999885 3 0.999885H7V3.49989H9.5V10.9999H2.5ZM3.5 7.99989H8.5V4.99989H3.5V7.99989ZM4.5 5.99989H7.5V6.99989H4.5V5.99989ZM3.5 8.99989H8.5V9.99989H3.5V8.99989Z" fill="#B4B2AF"/>
</g>
<defs>
<clipPath id="clip0_528_3491">
<rect width="12" height="12" fill="white"/>
</clipPath>
</defs>
</svg>
