<svg width="24" height="24" viewBox="0 0 24 24" fill="none" xmlns="http://www.w3.org/2000/svg">
<path d="M19.828 3.41371L17.586 1.17171C17.2154 0.799017 16.7745 0.503534 16.2889 0.302361C15.8033 0.101188 15.2826 -0.00168084 14.757 -0.000291284H6C5.20435 -0.000291284 4.44129 0.315779 3.87868 0.878388C3.31607 1.441 3 2.20406 3 2.99971V23.9997H21V6.24171C20.9974 5.18141 20.5762 4.16504 19.828 3.41371V3.41371ZM18.414 4.82771C18.4643 4.88227 18.5114 4.9397 18.555 4.99971H16V2.44471C16.06 2.48835 16.1174 2.53543 16.172 2.58571L18.414 4.82771ZM5 21.9997V2.99971C5 2.73449 5.10536 2.48014 5.29289 2.2926C5.48043 2.10507 5.73478 1.99971 6 1.99971H14V6.99971H19V21.9997H5ZM7 15.9997H17V9.99971H7V15.9997ZM9 11.9997H15V13.9997H9V11.9997ZM7 17.9997H17V19.9997H7V17.9997Z" fill="#B4B4AF"/>
</svg>
