<svg width="20" height="20" viewBox="0 0 20 20" fill="none" xmlns="http://www.w3.org/2000/svg">
<path d="M13 0C13.6834 0 14.2866 0.342703 14.6474 0.865612L14.7324 1H16C17.0544 1 17.9182 1.81588 17.9945 2.85074L18 3V15C18 17.6887 15.8777 19.8818 13.2169 19.9954L13 20H4C2.94564 20 2.08183 19.1841 2.00549 18.1493L2 18V3C2 1.94564 2.81588 1.08183 3.85074 1.00549L4 1H5.26756C5.58677 0.448185 6.16206 0.0630342 6.83093 0.00704551L7 0H13ZM5 3H4V18H13C14.6569 18 16 16.6569 16 15V3H15C15 4.10457 14.1046 5 13 5H7C5.89543 5 5 4.10457 5 3ZM10 12C10.5523 12 11 12.4477 11 13C11 13.5128 10.614 13.9355 10.1166 13.9933L10 14H7C6.44772 14 6 13.5523 6 13C6 12.4872 6.38604 12.0645 6.88338 12.0067L7 12H10ZM13 8C13.5523 8 14 8.4477 14 9C14 9.5523 13.5523 10 13 10H7C6.44772 10 6 9.5523 6 9C6 8.4477 6.44772 8 7 8H13ZM13 2H7V3H13V2Z" fill="#4F4D4A"/>
</svg>
