<svg width="14" height="14" viewBox="0 0 14 14" fill="none" xmlns="http://www.w3.org/2000/svg">
<g clip-path="url(#clip0_977_12756)">
<path d="M8.74968 14L5.24968 11.375V8.38833L0.583008 3.13833V1.75C0.583008 1.28587 0.767382 0.840752 1.09557 0.512563C1.42376 0.184374 1.86888 0 2.33301 0L11.6663 0C12.1305 0 12.5756 0.184374 12.9038 0.512563C13.232 0.840752 13.4163 1.28587 13.4163 1.75V3.13833L8.74968 8.38833V14ZM6.41634 10.7917L7.58301 11.6667V7.945L12.2497 2.695V1.75C12.2497 1.59529 12.1882 1.44692 12.0788 1.33752C11.9694 1.22812 11.8211 1.16667 11.6663 1.16667H2.33301C2.1783 1.16667 2.02993 1.22812 1.92053 1.33752C1.81113 1.44692 1.74967 1.59529 1.74967 1.75V2.695L6.41634 7.945V10.7917Z" fill="#B4B4AF"/>
</g>
<defs>
<clipPath id="clip0_977_12756">
<rect width="14" height="14" fill="white"/>
</clipPath>
</defs>
</svg>
