<svg width="17" height="16" viewBox="0 0 17 16" fill="none" xmlns="http://www.w3.org/2000/svg">
<g clip-path="url(#clip0_63_6104)">
<path d="M9.60758 0.555452C9.36274 0.335076 9.04499 0.213135 8.71558 0.213135C8.38616 0.213135 8.06841 0.335076 7.82358 0.555452L0.715576 6.95278V13.8861C0.715576 14.4519 0.940337 14.9945 1.34041 15.3946C1.74049 15.7947 2.28311 16.0194 2.84891 16.0194H14.5822C15.148 16.0194 15.6907 15.7947 16.0907 15.3946C16.4908 14.9945 16.7156 14.4519 16.7156 13.8861V6.95278L9.60758 0.555452ZM10.7156 14.6841H6.71558V11.3335C6.71558 10.803 6.92629 10.2943 7.30136 9.91924C7.67643 9.54416 8.18514 9.33345 8.71558 9.33345C9.24601 9.33345 9.75472 9.54416 10.1298 9.91924C10.5049 10.2943 10.7156 10.803 10.7156 11.3335V14.6841ZM15.3822 13.8841C15.3822 14.0963 15.298 14.2998 15.1479 14.4498C14.9979 14.5998 14.7944 14.6841 14.5822 14.6841H12.0489V11.3335C12.0489 10.4494 11.6977 9.60155 11.0726 8.97643C10.4475 8.35131 9.59963 8.00012 8.71558 8.00012C7.83152 8.00012 6.98367 8.35131 6.35855 8.97643C5.73343 9.60155 5.38224 10.4494 5.38224 11.3335V14.6841H2.84891C2.63674 14.6841 2.43325 14.5998 2.28322 14.4498C2.13319 14.2998 2.04891 14.0963 2.04891 13.8841V7.54612L8.71558 1.54612L15.3822 7.54612V13.8841Z" fill="white"/>
</g>
<defs>
<clipPath id="clip0_63_6104">
<rect width="16" height="16" fill="white" transform="translate(0.715576)"/>
</clipPath>
</defs>
</svg>
