<svg width="12" height="12" viewBox="0 0 12 12" fill="none" xmlns="http://www.w3.org/2000/svg">
<path d="M8.439 3.561C8.108 1.545 6.3585 0 4.25 0C1.9065 0 0 1.9065 0 4.25C0 6.3585 1.545 8.108 3.561 8.439C3.892 10.455 5.6415 12 7.75 12C10.0935 12 12 10.0935 12 7.75C12 5.6415 10.455 3.892 8.439 3.561ZM1 4.25C1 2.458 2.458 1 4.25 1C5.7895 1 7.08 2.0775 7.4135 3.517C5.3385 3.681 3.681 5.3385 3.517 7.4135C2.0775 7.08 1 5.7895 1 4.25ZM7.75 11C6.2105 11 4.92 9.9225 4.5865 8.483C6.6615 8.319 8.319 6.6615 8.483 4.5865C9.9225 4.92 11 6.2105 11 7.75C11 9.542 9.542 11 7.75 11Z" fill="#777674"/>
</svg>
