<svg width="12" height="12" viewBox="0 0 12 12" fill="none" xmlns="http://www.w3.org/2000/svg">
<g clip-path="url(#clip0_459_31629)">
<path d="M12 4.68373V5.84973L6 9.44973L0 5.85023V4.68423L6 8.28423L12 4.68423V4.68373ZM6 7.19823L0.028 3.61523L6 0.0322266L11.972 3.61523L6 7.19823ZM1.972 3.61523L6 6.03223L10.028 3.61523L6 1.19823L1.972 3.61523ZM0 6.84973V8.01573L6 11.6157L7 11.0157V9.84973L6 10.4497L0 6.84973ZM10.5 8.00023H9.5V9.50023H8V10.5002H9.5V12.0002H10.5V10.5002H12V9.50023H10.5V8.00023Z" fill="#B4B4AF"/>
</g>
<defs>
<clipPath id="clip0_459_31629">
<rect width="12" height="12" fill="white"/>
</clipPath>
</defs>
</svg>
