<svg width="16" height="16" viewBox="0 0 16 16" fill="none" xmlns="http://www.w3.org/2000/svg">
<g clip-path="url(#clip0_396_2134)">
<path d="M7.05535 13.6865C6.42396 14.301 5.57602 14.6422 4.69498 14.6363C3.81394 14.6304 2.97065 14.2778 2.34755 13.6549C1.72446 13.032 1.37168 12.1888 1.36552 11.3078C1.35937 10.4267 1.70035 9.57868 2.31468 8.94713L5.15601 6.1038L4.21268 5.16113L1.37201 8.00446C0.493528 8.88339 0.00017586 10.0753 0.00048843 11.318C0.000801 12.5606 0.494753 13.7523 1.37368 14.6308C2.25261 15.5093 3.44451 16.0026 4.68719 16.0023C5.92987 16.002 7.12153 15.508 8.00001 14.6291L10.8413 11.7878L9.89868 10.8451L7.05535 13.6865Z" fill="white"/>
<path d="M14.629 1.37426C14.1952 0.93747 13.679 0.591113 13.1104 0.355258C12.5417 0.119403 11.9319 -0.00126016 11.3163 0.000260568C10.701 -0.00137392 10.0915 0.118979 9.52305 0.354361C8.95456 0.589744 8.43838 0.935485 8.00434 1.37159L5.15967 4.21359L6.10234 5.15693L8.94567 2.31559C9.25604 2.00336 9.62526 1.7558 10.032 1.58723C10.4387 1.41867 10.8748 1.33246 11.315 1.33359C11.9778 1.33381 12.6257 1.53055 13.1768 1.89893C13.7278 2.26731 14.1573 2.79079 14.4109 3.40321C14.6645 4.01562 14.7308 4.68947 14.6015 5.33958C14.4722 5.98968 14.153 6.58685 13.6843 7.05559L10.843 9.89693L11.7863 10.8403L14.6277 8.00026C15.505 7.12099 15.9979 5.92966 15.9981 4.68754C15.9984 3.44541 15.506 2.25388 14.629 1.37426Z" fill="white"/>
<path d="M9.89686 5.16126L5.16064 9.89746L6.10346 10.8403L10.8397 6.10407L9.89686 5.16126Z" fill="white"/>
</g>
<defs>
<clipPath id="clip0_396_2134">
<rect width="16" height="16" fill="white"/>
</clipPath>
</defs>
</svg>
