<svg width="166" height="24" viewBox="0 0 166 24" fill="none" xmlns="http://www.w3.org/2000/svg">
<path fill-rule="evenodd" clip-rule="evenodd" d="M20.0662 3.11514C19.0969 3.9954 18.2724 5.03205 17.6325 6.18542C16.1755 4.77332 14.1891 3.90456 12.0003 3.90456C9.81146 3.90456 7.82502 4.77332 6.36811 6.18542C5.72819 5.03205 4.90372 3.9954 3.93436 3.11514C6.06511 1.17924 8.895 0 12.0003 0C15.1056 0 17.9355 1.17982 20.0662 3.11514ZM20.0662 20.8849C17.9355 22.8202 15.1061 24 12.0003 24C8.89442 24 6.06511 22.8208 3.93436 20.8849C4.90372 20.0046 5.72819 18.9679 6.36811 17.8146C7.82502 19.2267 9.81146 20.0954 12.0003 20.0954C14.1891 20.0954 16.1755 19.2267 17.6325 17.8146C18.2724 18.9679 19.0969 20.0046 20.0662 20.8849ZM20.0955 12C20.0955 14.282 19.1515 16.3433 17.6325 17.8146C16.6875 16.1121 16.1446 14.1557 16.1321 12.0736C16.1284 12.2682 16.1109 12.4648 16.0788 12.6624C15.7132 14.9148 13.591 16.4443 11.3386 16.0787C9.32424 15.7517 7.88803 14.0196 7.86863 12.0459C7.86079 14.1383 7.3173 16.1045 6.36811 17.8146C4.84968 16.3438 3.90576 14.2836 3.90504 12.0026C3.90432 14.2641 2.97649 16.3087 1.48049 17.7772C0.536425 16.0632 0 14.0946 0 12C0 9.90542 0.536425 7.93675 1.48049 6.2228C2.97649 7.69125 3.90432 9.73594 3.90504 11.9974C3.90576 9.7164 4.84968 7.65618 6.36811 6.18543C7.31854 7.89772 7.8622 9.86681 7.86866 11.9622C7.87082 11.7563 7.88843 11.5479 7.92244 11.3384C8.28804 9.08605 10.4103 7.55652 12.6626 7.92213C14.6649 8.24717 16.096 9.96058 16.1321 11.9195C16.1458 9.84003 16.6885 7.88608 17.6325 6.18543C19.1515 7.65675 20.0955 9.71798 20.0955 12ZM22.5201 17.7772C23.4636 16.0632 24 14.0946 24 12C24 9.90542 23.4636 7.93675 22.5201 6.2228C21.0235 7.69182 20.0955 9.73753 20.0955 12C20.0955 14.2625 21.0235 16.3082 22.5201 17.7772Z" fill="white"/>
<path d="M160.915 19.2C158.315 19.2 156.315 17.1 156.315 14C156.315 10.9 158.315 8.8 160.915 8.8C162.315 8.8 163.315 9.4 164.115 10.4H164.215V5H165.715V19H164.415L164.215 17.6H164.115C163.315 18.6 162.315 19.2 160.915 19.2ZM161.015 17.8C162.715 17.8 164.215 16.3 164.215 14C164.215 11.7 162.715 10.2 161.015 10.2C159.315 10.2 157.815 11.7 157.815 14C157.815 16.3 159.315 17.8 161.015 17.8Z" fill="white"/>
<path d="M150.509 19V9H151.809L152.009 10H152.109C152.509 9.4 152.909 9 154.009 9H155.709V10.4H154.209C152.809 10.4 152.009 11.2 152.009 12.6V19H150.509Z" fill="white"/>
<path d="M143.004 19.2001C140.904 19.2001 139.504 17.9 139.504 16.1C139.504 14.2 140.704 12.9 143.504 12.9H146.204V12.6C146.204 11.1 145.304 10.2 143.804 10.2C142.304 10.2 141.404 11 141.304 11.9H139.804C139.904 10.3 141.304 8.80005 143.804 8.80005C146.204 8.80005 147.704 10.2 147.704 12.6V19H146.404L146.204 17.8H146.104C146.104 17.8 145.204 19.2001 143.004 19.2001ZM143.004 17.8C145.004 17.8 146.204 16.6 146.204 14.7V14.3H143.504C141.704 14.3 141.004 15.1 141.004 16.1C141.004 17.1 141.704 17.8 143.004 17.8Z" fill="white"/>
<path d="M132.912 19.2001C130.212 19.2001 128.112 17.1 128.112 14C128.112 10.9 130.212 8.80005 132.912 8.80005C135.612 8.80005 137.712 10.9 137.712 14C137.712 17.1 135.612 19.2001 132.912 19.2001ZM132.912 17.8C134.712 17.8 136.212 16.3 136.212 14C136.212 11.7 134.712 10.2 132.912 10.2C131.112 10.2 129.612 11.7 129.612 14C129.612 16.3 131.112 17.8 132.912 17.8Z" fill="white"/>
<path d="M121.913 19.2C120.513 19.2 119.513 18.6 118.713 17.6H118.613L118.413 19H117.113V5H118.613V10.4H118.713C119.513 9.4 120.513 8.8 121.913 8.8C124.513 8.8 126.513 10.9 126.513 14C126.513 17.1 124.513 19.2 121.913 19.2ZM121.813 17.8C123.513 17.8 125.013 16.3 125.013 14C125.013 11.7 123.513 10.2 121.813 10.2C120.113 10.2 118.613 11.7 118.613 14C118.613 16.3 120.113 17.8 121.813 17.8Z" fill="white"/>
<path d="M105.609 19V5H107.109V10.1H107.209C107.209 10.1 108.209 8.8 110.209 8.8C112.509 8.8 114.209 10.5 114.209 13V19H112.709V13C112.709 11.4 111.509 10.2 110.009 10.2C108.409 10.2 107.109 11.5 107.109 13V19H105.609Z" fill="white"/>
<path d="M99.51 19.2001C97.01 19.2001 95.51 17.7 95.51 16.1H97.01C97.01 17 97.91 17.8 99.51 17.8C101.11 17.8 101.91 17.1 101.91 16.3C101.91 15.5 101.41 15.0001 100.21 14.8L98.51 14.5C96.71 14.2 95.71 13.3 95.71 11.7C95.71 10.1 96.91 8.80005 99.41 8.80005C101.81 8.80005 103.31 10.3 103.31 11.9H101.81C101.81 11 100.91 10.2 99.41 10.2C97.91 10.2 97.21 10.9 97.21 11.7C97.21 12.4 97.61 12.88 98.81 13.1L100.51 13.4C102.51 13.76 103.41 14.7 103.41 16.3C103.41 17.9001 102.11 19.2001 99.51 19.2001Z" fill="white"/>
<path d="M88.8047 19.2001C86.7047 19.2001 85.3047 17.9 85.3047 16.1C85.3047 14.2 86.5047 12.9 89.3047 12.9H92.0047V12.6C92.0047 11.1 91.1047 10.2 89.6047 10.2C88.1047 10.2 87.2047 11 87.1047 11.9H85.6047C85.7047 10.3 87.1047 8.80005 89.6047 8.80005C92.0047 8.80005 93.5047 10.2 93.5047 12.6V19H92.2047L92.0047 17.8H91.9047C91.9047 17.8 91.0047 19.2001 88.8047 19.2001ZM88.8047 17.8C90.8047 17.8 92.0047 16.6 92.0047 14.7V14.3H89.3047C87.5047 14.3 86.8047 15.1 86.8047 16.1C86.8047 17.1 87.5047 17.8 88.8047 17.8Z" fill="white"/>
<path d="M71.9006 19V5H76.6006C80.5006 5 83.3006 7.9 83.3006 12C83.3006 16.1 80.5006 19 76.6006 19H71.9006ZM73.5006 17.5H76.6006C79.5006 17.5 81.7006 15.3 81.7006 12C81.7006 8.7 79.5006 6.5 76.6006 6.5H73.5006V17.5Z" fill="white"/>
<path d="M64.499 19.2001C61.599 19.2001 59.499 17.1 59.499 14C59.499 10.9 61.599 8.80005 64.499 8.80005C67.399 8.80005 69.499 10.9 69.499 14C69.499 17.1 67.399 19.2001 64.499 19.2001ZM64.499 17.4C66.199 17.4 67.499 16.1 67.499 14C67.499 11.9 66.199 10.6 64.499 10.6C62.799 10.6 61.499 11.9 61.499 14C61.499 16.1 62.799 17.4 64.499 17.4Z" fill="white"/>
<path d="M53.0928 19.2001C50.1928 19.2001 48.0928 17.1 48.0928 14C48.0928 10.9 50.1928 8.80005 53.0928 8.80005C55.7928 8.80005 57.8928 10.9 57.8928 13.7C57.8928 14.3 57.7928 14.7 57.7928 14.7H50.0928C50.2928 16.4 51.4928 17.5 53.0928 17.5C54.2928 17.5 55.1928 16.8 55.4928 16.1H57.5928C57.0928 17.4 55.6928 19.2001 53.0928 19.2001ZM50.0928 13.2H55.9928C55.7928 11.6 54.6928 10.5 53.0928 10.5C51.3928 10.5 50.3928 11.6 50.0928 13.2Z" fill="white"/>
<path d="M39.5999 19.2001C35.8999 19.2001 32.8999 16.3 32.8999 12C32.8999 7.70005 35.8999 4.80005 39.5999 4.80005C43.0999 4.80005 45.2999 7.20005 45.8999 9.60005H43.6999C42.9999 7.80005 41.3999 6.80005 39.5999 6.80005C36.9999 6.80005 34.9999 8.80005 34.9999 12C34.9999 15.2001 36.9999 17.2 39.5999 17.2C41.9999 17.2 43.8999 15.3 43.8999 13.5C43.8999 13.46 43.8999 13.44 43.8999 13.4H39.9999V11.7H45.9999V19H44.2999L44.0999 17.2H43.9999C43.9999 17.2 42.5999 19.2001 39.5999 19.2001Z" fill="white"/>
</svg>
