<svg width="16" height="16" viewBox="0 0 16 16" fill="none" xmlns="http://www.w3.org/2000/svg">
<path d="M4.10026 9.17559L7.40026 12.4756L8.34226 11.5303L5.47559 8.66359L14.8643 8.66359L14.8643 7.33026L5.47559 7.33025L8.34226 4.46359L7.39959 3.52092L4.09959 6.82092C3.94478 6.97569 3.82198 7.15944 3.73819 7.36168C3.65441 7.56392 3.61128 7.78068 3.61128 7.99959C3.61128 8.21849 3.6544 8.43526 3.73819 8.63749C3.82198 8.83973 3.94478 9.02348 4.09959 9.17825L4.10026 9.17559Z" fill="#B4B4AF"/>
<path d="M9.38439 14C9.38439 14.1768 9.31415 14.3464 9.18913 14.4714C9.0641 14.5964 8.89454 14.6667 8.71772 14.6667H2.40039C2.22358 14.6667 2.05401 14.5964 1.92899 14.4714C1.80396 14.3464 1.73372 14.1768 1.73372 14V2C1.73372 1.82319 1.80396 1.65362 1.92899 1.5286C2.05401 1.40357 2.22358 1.33333 2.40039 1.33333H8.71772C8.89454 1.33333 9.0641 1.40357 9.18913 1.5286C9.31415 1.65362 9.38439 1.82319 9.38439 2V5.55533H10.7177V2C10.7177 1.46957 10.507 0.960859 10.1319 0.585786C9.75686 0.210714 9.24816 0 8.71772 0L2.40039 0C1.86996 0 1.36125 0.210714 0.986177 0.585786C0.611104 0.960859 0.400391 1.46957 0.400391 2V14C0.400391 14.5304 0.611104 15.0391 0.986177 15.4142C1.36125 15.7893 1.86996 16 2.40039 16H8.71772C9.24816 16 9.75686 15.7893 10.1319 15.4142C10.507 15.0391 10.7177 14.5304 10.7177 14V10.4447H9.38439V14Z" fill="#B4B4AF"/>
</svg>
