<svg width="20" height="20" viewBox="0 0 20 20" fill="none" xmlns="http://www.w3.org/2000/svg">
<g clip-path="url(#clip0_713_18753)">
<path fill-rule="evenodd" clip-rule="evenodd" d="M10 6.66667C8.15905 6.66667 6.66667 8.15905 6.66667 10C6.66667 11.8409 8.15905 13.3333 10 13.3333C11.8409 13.3333 13.3333 11.8409 13.3333 10C13.3333 8.15905 11.8409 6.66667 10 6.66667ZM8.33333 10C8.33333 9.07952 9.07952 8.33333 10 8.33333C10.9205 8.33333 11.6667 9.07952 11.6667 10C11.6667 10.9205 10.9205 11.6667 10 11.6667C9.07952 11.6667 8.33333 10.9205 8.33333 10Z" fill="#F9F8F7"/>
<path fill-rule="evenodd" clip-rule="evenodd" d="M10 0C10.4602 0 10.8333 0.373096 10.8333 0.833333V2.54577C14.3097 2.93006 17.0699 5.69032 17.4542 9.16667H19.1667C19.6269 9.16667 20 9.53976 20 10C20 10.4602 19.6269 10.8333 19.1667 10.8333H17.4542C17.0699 14.3097 14.3097 17.0699 10.8333 17.4542V19.1667C10.8333 19.6269 10.4602 20 10 20C9.53976 20 9.16667 19.6269 9.16667 19.1667V17.4542C5.69032 17.0699 2.93006 14.3097 2.54577 10.8333H0.833333C0.373096 10.8333 0 10.4602 0 10C0 9.53976 0.373096 9.16667 0.833333 9.16667H2.54577C2.93006 5.69032 5.69032 2.93006 9.16667 2.54577V0.833333C9.16667 0.373096 9.53976 0 10 0ZM15.8333 10C15.8333 6.77834 13.2217 4.16667 10 4.16667C6.77834 4.16667 4.16667 6.77834 4.16667 10C4.16667 13.2217 6.77834 15.8333 10 15.8333C13.2217 15.8333 15.8333 13.2217 15.8333 10Z" fill="#F9F8F7"/>
</g>
<defs>
<clipPath id="clip0_713_18753">
<rect width="20" height="20" fill="white"/>
</clipPath>
</defs>
</svg>
