<svg width="16" height="16" viewBox="0 0 16 16" fill="none" xmlns="http://www.w3.org/2000/svg">
<g id="ic-type" clip-path="url(#clip0_641_23777)">
<g id="Vector">
<path d="M14.989 7.16856L7.99937 11.363L1.00971 7.16856C0.858103 7.07759 0.676569 7.05058 0.505044 7.09346C0.333519 7.13634 0.186054 7.24561 0.0950896 7.39721C0.00412486 7.54882 -0.0228882 7.73036 0.019993 7.90188C0.0628742 8.07341 0.172137 8.22087 0.323745 8.31184L7.65672 12.7116C7.7604 12.7739 7.87908 12.8068 8.00003 12.8068C8.12099 12.8068 8.23967 12.7739 8.34335 12.7116L15.6763 8.31184C15.8279 8.22087 15.9372 8.07341 15.9801 7.90188C16.023 7.73036 15.9959 7.54882 15.905 7.39721C15.814 7.24561 15.6665 7.13634 15.495 7.09346C15.3235 7.05058 15.142 7.07759 14.9904 7.16856H14.989Z" fill="#B4B4AF"/>
<path d="M14.989 10.2138L7.99936 14.4075L1.00971 10.2138C0.934641 10.1687 0.851435 10.1389 0.764845 10.126C0.678254 10.1131 0.589973 10.1174 0.505042 10.1387C0.420112 10.1599 0.340195 10.1976 0.269855 10.2498C0.199515 10.3019 0.140129 10.3673 0.0950876 10.4424C0.0500465 10.5175 0.0202322 10.6007 0.00734708 10.6873C-0.00553802 10.7739 -0.00124161 10.8621 0.019991 10.9471C0.0628722 11.1186 0.172135 11.2661 0.323743 11.357L7.65671 15.7568C7.7604 15.8191 7.87908 15.852 8.00003 15.852C8.12099 15.852 8.23967 15.8191 8.34335 15.7568L15.6763 11.357C15.8279 11.2661 15.9372 11.1186 15.9801 10.9471C16.023 10.7755 15.9959 10.594 15.905 10.4424C15.814 10.2908 15.6665 10.1815 15.495 10.1387C15.3235 10.0958 15.142 10.1228 14.9904 10.2138H14.989Z" fill="#B4B4AF"/>
<path d="M7.99939 9.70044C7.6398 9.70024 7.28702 9.60231 6.97878 9.41712L0.323106 5.42332C0.224543 5.36405 0.142989 5.28029 0.086372 5.18018C0.0297547 5.08008 0 4.96702 0 4.85201C0 4.737 0.0297547 4.62395 0.086372 4.52384C0.142989 4.42373 0.224543 4.33997 0.323106 4.28071L6.97878 0.286903C7.28701 0.101732 7.63982 0.00390625 7.99939 0.00390625C8.35897 0.00390625 8.71178 0.101732 9.02001 0.286903L15.6757 4.28071C15.7742 4.33997 15.8558 4.42373 15.9124 4.52384C15.969 4.62395 15.9988 4.737 15.9988 4.85201C15.9988 4.96702 15.969 5.08008 15.9124 5.18018C15.8558 5.28029 15.7742 5.36405 15.6757 5.42332L9.02001 9.41712C8.71177 9.60231 8.35899 9.70024 7.99939 9.70044ZM1.96236 4.85201L7.66608 8.27384C7.76682 8.3341 7.88201 8.36593 7.99939 8.36593C8.11678 8.36593 8.23197 8.3341 8.33271 8.27384L14.0364 4.85201L8.33271 1.43018C8.23197 1.36992 8.11678 1.3381 7.99939 1.3381C7.88201 1.3381 7.76682 1.36992 7.66608 1.43018L1.96236 4.85201Z" fill="#B4B4AF"/>
</g>
</g>
<defs>
<clipPath id="clip0_641_23777">
<rect width="16" height="16" fill="white"/>
</clipPath>
</defs>
</svg>
