<svg width="20" height="20" viewBox="0 0 20 20" fill="none" xmlns="http://www.w3.org/2000/svg">
<g clip-path="url(#clip0_6_13936)">
<path d="M18.7363 8.96045L9.99921 14.2035L1.26214 8.96045C1.07263 8.84675 0.845711 8.81298 0.631305 8.86658C0.416899 8.92019 0.232568 9.05676 0.118862 9.24627C0.00515608 9.43578 -0.0286103 9.6627 0.0249912 9.87711C0.0785927 10.0915 0.215171 10.2758 0.404681 10.3896L9.5709 15.8893C9.7005 15.9671 9.84885 16.0083 10 16.0083C10.1512 16.0083 10.2996 15.9671 10.4292 15.8893L19.5954 10.3896C19.7849 10.2758 19.9215 10.0915 19.9751 9.87711C20.0287 9.6627 19.9949 9.43578 19.8812 9.24627C19.7675 9.05676 19.5832 8.92019 19.3688 8.86658C19.1544 8.81298 18.9275 8.84675 18.7379 8.96045H18.7363Z" fill="#B4B2AF"/>
<path d="M18.7363 12.7669L9.99921 18.0092L1.26214 12.7669C1.1683 12.7106 1.06429 12.6734 0.956056 12.6573C0.847817 12.6412 0.737466 12.6465 0.631303 12.6731C0.52514 12.6996 0.425244 12.7468 0.337319 12.812C0.249394 12.8771 0.175161 12.9589 0.11886 13.0528C0.0625581 13.1466 0.0252902 13.2506 0.00918385 13.3588C-0.00692253 13.4671 -0.00155201 13.5774 0.0249888 13.6836C0.0785903 13.898 0.215169 14.0823 0.404679 14.196L9.57089 19.6958C9.7005 19.7736 9.84884 19.8148 10 19.8148C10.1512 19.8148 10.2996 19.7736 10.4292 19.6958L19.5954 14.196C19.7849 14.0823 19.9215 13.898 19.9751 13.6836C20.0287 13.4692 19.9949 13.2423 19.8812 13.0528C19.7675 12.8633 19.5832 12.7267 19.3688 12.6731C19.1544 12.6195 18.9275 12.6532 18.7379 12.7669H18.7363Z" fill="#B4B2AF"/>
<path d="M9.99924 12.1253C9.54975 12.1251 9.10877 12.0026 8.72347 11.7712L0.403883 6.7789C0.280679 6.70482 0.178737 6.60012 0.107965 6.47499C0.0371934 6.34985 0 6.20853 0 6.06477C0 5.92101 0.0371934 5.77969 0.107965 5.65456C0.178737 5.52942 0.280679 5.42472 0.403883 5.35064L8.72347 0.358385C9.10876 0.126921 9.54977 0.00463867 9.99924 0.00463867C10.4487 0.00463867 10.8897 0.126921 11.275 0.358385L19.5946 5.35064C19.7178 5.42472 19.8197 5.52942 19.8905 5.65456C19.9613 5.77969 19.9985 5.92101 19.9985 6.06477C19.9985 6.20853 19.9613 6.34985 19.8905 6.47499C19.8197 6.60012 19.7178 6.70482 19.5946 6.7789L11.275 11.7712C10.8897 12.0026 10.4487 12.1251 9.99924 12.1253ZM2.45295 6.06477L9.5826 10.3421C9.70852 10.4174 9.85251 10.4572 9.99924 10.4572C10.146 10.4572 10.29 10.4174 10.4159 10.3421L17.5455 6.06477L10.4159 1.78748C10.29 1.71216 10.146 1.67238 9.99924 1.67238C9.85251 1.67238 9.70852 1.71216 9.5826 1.78748L2.45295 6.06477Z" fill="#B4B2AF"/>
</g>
<defs>
<clipPath id="clip0_6_13936">
<rect width="20" height="20" fill="white"/>
</clipPath>
</defs>
</svg>
