<svg width="12" height="12" viewBox="0 0 12 12" fill="none" xmlns="http://www.w3.org/2000/svg">
<path d="M4.09397 2.25483C4.61601 1.81327 5.32195 1.60078 6.00039 1.60078C6.67883 1.60078 7.38477 1.81327 7.90681 2.25483C8.40639 2.67741 8.80039 3.36092 8.80039 4.45485C8.80039 4.75303 8.67727 5.22004 8.40879 5.83394C8.14911 6.42761 7.78857 7.08148 7.39445 7.72727C6.91379 8.51486 6.39959 9.26422 5.98595 9.84854C5.56857 9.26462 5.05318 8.49942 4.57597 7.69915C4.18783 7.04825 3.83481 6.39052 3.58125 5.79953C3.31805 5.18608 3.20039 4.73051 3.20039 4.45485C3.20039 3.36092 3.59437 2.67741 4.09397 2.25483ZM6.48653 10.5251C7.56762 9.01134 9.60039 6.03423 9.60039 4.45485C9.60039 1.83142 7.66189 0.800781 6.00039 0.800781C4.33889 0.800781 2.40039 1.83142 2.40039 4.45485C2.40039 5.96019 4.38065 9.00654 5.4944 10.5345C5.69771 10.8133 5.87215 11.0417 6.00039 11.2008C6.04541 11.138 6.09832 11.0647 6.15799 10.9821C6.25214 10.8517 6.36313 10.6979 6.48653 10.5251Z" fill="#F36A1D"/>
</svg>
