<svg width="20" height="21" viewBox="0 0 20 21" fill="none" xmlns="http://www.w3.org/2000/svg">
<g clip-path="url(#clip0_814_140052)">
<path d="M13.9062 17.375C14.3377 17.375 14.6875 17.0252 14.6875 16.5938C14.6875 16.1623 14.3377 15.8125 13.9062 15.8125C13.4748 15.8125 13.125 16.1623 13.125 16.5938C13.125 17.0252 13.4748 17.375 13.9062 17.375Z" fill="#4F4D4A"/>
<path d="M6.875 18.9375H3.75C3.31922 18.9375 2.96875 18.587 2.96875 18.1562V2.84375C2.96875 2.41297 3.31922 2.0625 3.75 2.0625H9.21875V4.40625C9.21875 5.69859 10.2702 6.75 11.5625 6.75H14.6875C15.0035 6.75 15.2884 6.55965 15.4093 6.26773C15.5302 5.97578 15.4634 5.63977 15.24 5.41633L10.5525 0.728828C10.4073 0.58375 10.2052 0.5 10 0.5H3.75C2.45766 0.5 1.40625 1.55141 1.40625 2.84375V18.1562C1.40625 19.4486 2.45766 20.5 3.75 20.5H6.875C7.30648 20.5 7.65625 20.1502 7.65625 19.7188C7.65625 19.2873 7.30648 18.9375 6.875 18.9375ZM11.5625 5.1875C11.1317 5.1875 10.7812 4.83703 10.7812 4.40625V3.16734L12.8014 5.1875H11.5625Z" fill="#4F4D4A"/>
<path d="M5.3125 5.1875C4.88102 5.1875 4.53125 5.53727 4.53125 5.96875C4.53125 6.40023 4.88102 6.75 5.3125 6.75H6.875C7.30648 6.75 7.65625 6.40023 7.65625 5.96875C7.65625 5.53727 7.30648 5.1875 6.875 5.1875H5.3125Z" fill="#4F4D4A"/>
<path d="M8.4375 8.3125H5.3125C4.88102 8.3125 4.53125 8.66227 4.53125 9.09375C4.53125 9.52523 4.88102 9.875 5.3125 9.875H8.4375C8.86898 9.875 9.21875 9.52523 9.21875 9.09375C9.21875 8.66227 8.86898 8.3125 8.4375 8.3125Z" fill="#4F4D4A"/>
<path d="M17.0312 12.8219V11.4375C17.0312 9.71438 15.6294 8.3125 13.9062 8.3125C12.1831 8.3125 10.7812 9.71438 10.7812 11.4375V12.8219C9.87195 13.1444 9.21875 14.0128 9.21875 15.0312V18.1562C9.21875 19.4486 10.2702 20.5 11.5625 20.5H16.25C17.5423 20.5 18.5938 19.4486 18.5938 18.1562V15.0312C18.5938 14.0128 17.9405 13.1444 17.0312 12.8219ZM12.3438 11.4375C12.3438 10.5759 13.0447 9.875 13.9062 9.875C14.7678 9.875 15.4688 10.5759 15.4688 11.4375V12.6875H12.3438V11.4375ZM17.0312 18.1562C17.0312 18.587 16.6808 18.9375 16.25 18.9375H11.5625C11.1317 18.9375 10.7812 18.587 10.7812 18.1562V15.0312C10.7812 14.6005 11.1317 14.25 11.5625 14.25H16.25C16.6808 14.25 17.0312 14.6005 17.0312 15.0312V18.1562Z" fill="#4F4D4A"/>
</g>
<defs>
<clipPath id="clip0_814_140052">
<rect width="20" height="20" fill="white" transform="translate(0 0.5)"/>
</clipPath>
</defs>
</svg>
