<svg width="17" height="16" viewBox="0 0 17 16" fill="none" xmlns="http://www.w3.org/2000/svg">
<g clip-path="url(#clip0_189_17299)">
<path d="M14.5024 0.777963L14.4884 0.773296L12.6784 0.173296C12.0532 -0.0342666 11.3806 -0.0525883 10.745 0.12063L7.0277 1.19996C6.57253 1.32059 6.08951 1.27813 5.66236 1.07996L5.32903 0.925296C4.82276 0.714745 4.27236 0.632334 3.72663 0.685367C3.18089 0.7384 2.65666 0.925238 2.2004 1.22932C1.74414 1.53341 1.36994 1.94535 1.11095 2.42865C0.851972 2.91194 0.71621 3.45165 0.715698 3.99996L0.715698 12.05C0.717099 12.7708 0.951559 13.472 1.38409 14.0487C1.81662 14.6254 2.42404 15.0468 3.1157 15.25L5.02836 15.85C5.35104 15.9503 5.68712 16.0009 6.02503 16C6.32624 16.0038 6.62636 15.9631 6.9157 15.8793L10.7824 14.8126C11.1357 14.7168 11.5086 14.7198 11.8604 14.8213L13.4224 15.272C13.8145 15.3668 14.2231 15.3714 14.6172 15.2854C15.0114 15.1994 15.3809 15.0251 15.698 14.7757C16.0151 14.5262 16.2714 14.208 16.4477 13.8451C16.624 13.4822 16.7156 13.0841 16.7157 12.6806V3.91729C16.7147 3.22985 16.5016 2.55947 16.1055 1.99763C15.7093 1.43578 15.1495 1.00985 14.5024 0.777963ZM3.4997 13.9726C3.08257 13.852 2.71576 13.5995 2.45423 13.2528C2.1927 12.9062 2.05053 12.4842 2.04903 12.05V3.99996C2.04579 3.66975 2.12567 3.34402 2.28131 3.05277C2.43696 2.76152 2.66337 2.51411 2.9397 2.3333C3.2685 2.11519 3.65447 1.99922 4.04903 1.99996C4.30347 2.00003 4.5554 2.05033 4.79036 2.14796C4.79036 2.14796 5.28703 2.36063 5.3817 2.39463V14.5613L3.4997 13.9726ZM6.7157 14.5513V2.58596C6.94214 2.57395 7.16681 2.53933 7.38636 2.48263L10.7157 1.5153V13.4666L6.7157 14.5513ZM15.3824 12.6806C15.3825 12.8803 15.3378 13.0775 15.2515 13.2576C15.1652 13.4377 15.0396 13.5961 14.8839 13.7212C14.7282 13.8462 14.5464 13.9347 14.352 13.98C14.1575 14.0254 13.9553 14.0265 13.7604 13.9833L12.049 13.5013V1.3833L14.061 2.03596C14.4477 2.17606 14.7819 2.43175 15.0183 2.76831C15.2547 3.10487 15.3818 3.50602 15.3824 3.91729V12.6806Z" fill="white"/>
</g>
<defs>
<clipPath id="clip0_189_17299">
<rect width="16" height="16" fill="white" transform="translate(0.715698)"/>
</clipPath>
</defs>
</svg>
