<svg width="40" height="40" viewBox="0 0 40 40" fill="none" xmlns="http://www.w3.org/2000/svg">
<path d="M20.0001 39.99L8.22841 28.4767C1.71841 21.965 1.71841 11.3917 8.21507 4.89333C11.3634 1.74333 15.5484 0.00999451 20.0001 0.00999451C24.4517 0.00999451 28.6367 1.74333 31.7851 4.89166C38.2817 11.39 38.2817 21.9633 31.7851 28.4617L20.0001 39.99ZM20.0001 3.34499C16.4384 3.34499 13.0901 4.73166 10.5717 7.24999C5.37341 12.4483 5.37341 20.9067 10.5717 26.1067L20.0001 35.3267L29.4417 26.0933C34.6267 20.9083 34.6251 12.4483 29.4284 7.24999C26.9084 4.73166 23.5601 3.34499 20.0001 3.34499ZM18.7367 25.0017H11.6667V17.93L19.7984 9.8C21.7484 7.85 24.9184 7.85 26.8684 9.8C27.8117 10.7433 28.3334 12 28.3334 13.335C28.3334 14.67 27.8117 15.9267 26.8684 16.8717L18.7367 25.0017ZM15.0001 21.6683H17.3567L24.5117 14.5133C24.8267 14.1983 25.0001 13.78 25.0001 13.335C25.0001 12.89 24.8267 12.4717 24.5117 12.1567C23.8601 11.505 22.8067 11.5067 22.1551 12.1567L15.0001 19.31V21.6683Z" fill="#777674"/>
</svg>
