<svg width="18" height="20" viewBox="0 0 18 20" fill="none" xmlns="http://www.w3.org/2000/svg">
<path d="M8.965 20.0066L8.3841 19.5087C7.58328 18.8382 0.59082 12.7992 0.59082 8.38187C0.59082 3.75695 4.34008 0.00769043 8.965 0.00769043C13.5899 0.00769043 17.3392 3.75695 17.3392 8.38187C17.3392 12.7993 10.3467 18.8382 9.54922 19.512L8.965 20.0066ZM8.965 1.81843C5.34184 1.82253 2.4057 4.75867 2.4016 8.38183C2.4016 11.1569 6.70363 15.59 8.965 17.6191C11.2264 15.5892 15.5284 11.1536 15.5284 8.38183C15.5243 4.75867 12.5882 1.82257 8.965 1.81843Z" fill="#4F4D4A"/>
<path d="M8.965 11.7013C7.13172 11.7013 5.64554 10.2152 5.64554 8.38187C5.64554 6.54859 7.13172 5.06242 8.965 5.06242C10.7983 5.06242 12.2844 6.54859 12.2844 8.38187C12.2844 10.2152 10.7983 11.7013 8.965 11.7013ZM8.965 6.72211C8.04836 6.72211 7.30527 7.46519 7.30527 8.38183C7.30527 9.29847 8.04836 10.0416 8.965 10.0416C9.88164 10.0416 10.6247 9.29847 10.6247 8.38183C10.6247 7.46519 9.88168 6.72211 8.965 6.72211Z" fill="#4F4D4A"/>
</svg>
