<svg width="16" height="16" viewBox="0 0 16 16" fill="none" xmlns="http://www.w3.org/2000/svg">
<g id="ic-type" clip-path="url(#clip0_641_8042)">
<path id="Vector" d="M16 6.42466V7.97932L8 12.7793L0 7.97932V6.42466L8 11.2247L16 6.42466ZM0 9.31199V10.8667L8 15.6667L16 10.8667V9.31199L8 14.112L0 9.31199ZM8 9.77732L0.0373333 4.99999L8 0.222656L15.9627 4.99999L8 9.77732ZM8 8.22266L10.052 6.99132L8.02867 5.77732L5.97667 7.00799L8 8.22266ZM13.3707 4.99999L11.3473 3.78599L9.324 4.99999L11.3473 6.21399L13.3707 4.99999ZM8 1.77732L5.97667 2.99132L8.02867 4.22199L10.052 3.00799L8 1.77732ZM2.62933 4.99999L4.68067 6.23066L6.73267 4.99999L4.68067 3.76932L2.62933 4.99999Z" fill="#B4B4AF"/>
</g>
<defs>
<clipPath id="clip0_641_8042">
<rect width="16" height="16" fill="white"/>
</clipPath>
</defs>
</svg>
