<svg width="12" height="12" viewBox="0 0 12 12" fill="none" xmlns="http://www.w3.org/2000/svg">
<g clip-path="url(#clip0_6_13352)">
<path d="M0.537715 3.13193C-0.177285 2.41643 -0.177285 1.25243 0.537715 0.536926C1.25271 -0.178574 2.41622 -0.178074 3.13172 0.536926L5.29721 2.70243L4.59022 3.40943L2.42522 1.24393C2.10071 0.918926 1.57072 0.918926 1.24521 1.24393C0.919715 1.56943 0.919715 2.09893 1.24521 2.42443L3.41022 4.58993L2.70322 5.29693L0.537715 3.13193ZM5.98522 8.61493C6.02572 9.36843 5.75872 10.1359 5.18422 10.7099C4.21972 11.6739 1.17271 11.9209 0.571215 11.9604L0.0017148 11.9979L0.0392148 11.4284C0.0787148 10.8274 0.325715 7.77993 1.28971 6.81543C1.86672 6.23843 2.63822 5.97193 3.39522 6.01543L8.86822 0.542926C9.58322 -0.173074 10.7482 -0.173074 11.4627 0.542926C12.1782 1.25843 12.1782 2.42193 11.4627 3.13693L5.98471 8.61443L5.98522 8.61493ZM4.50622 6.31943C4.75072 6.44593 4.97972 6.61143 5.18422 6.81593C5.39072 7.02243 5.55722 7.25443 5.68472 7.50143L10.7562 2.43043C10.9137 2.27293 11.0002 2.06343 11.0002 1.84043C11.0002 1.61743 10.9137 1.40793 10.7562 1.24993C10.4312 0.924926 9.90071 0.924926 9.57572 1.24993L4.50671 6.31893L4.50622 6.31943ZM4.47722 7.52293C4.13522 7.18093 3.68622 7.01093 3.23772 7.01093C2.78922 7.01093 2.33922 7.18143 1.99771 7.52293C1.53171 7.98943 1.22021 9.65893 1.08871 10.9119C2.34172 10.7799 4.01171 10.4684 4.47772 10.0029C5.16072 9.31943 5.16022 8.20643 4.47722 7.52293ZM9.29772 6.70243L8.59072 7.40943L11.0002 9.81943V10.9994H9.82022L7.41022 8.58993L6.70322 9.29693L9.40622 11.9994H12.0002V9.40543L9.29772 6.70243Z" fill="white"/>
</g>
<defs>
<clipPath id="clip0_6_13352">
<rect width="12" height="12" fill="white"/>
</clipPath>
</defs>
</svg>
