<svg width="40" height="40" viewBox="0 0 40 40" fill="none" xmlns="http://www.w3.org/2000/svg">
<g clip-path="url(#clip0_26_13896)">
<path d="M35 0H5C3.67392 0 2.40215 0.526784 1.46447 1.46447C0.526784 2.40215 0 3.67392 0 5L0 40H40V5C40 3.67392 39.4732 2.40215 38.5355 1.46447C37.5979 0.526784 36.3261 0 35 0V0ZM5 3.33333H35C35.442 3.33333 35.866 3.50893 36.1785 3.82149C36.4911 4.13405 36.6667 4.55797 36.6667 5V34.31L18.535 16.1783C17.5974 15.241 16.3258 14.7144 15 14.7144C13.6742 14.7144 12.4026 15.241 11.465 16.1783L3.33333 24.31V5C3.33333 4.55797 3.50893 4.13405 3.82149 3.82149C4.13405 3.50893 4.55797 3.33333 5 3.33333ZM3.33333 29.0233L13.8217 18.535C14.1342 18.2225 14.5581 18.047 15 18.047C15.4419 18.047 15.8658 18.2225 16.1783 18.535L34.31 36.6667H3.33333V29.0233Z" fill="#777674"/>
<path d="M26.6665 16.6667C27.6554 16.6667 28.6221 16.3734 29.4444 15.824C30.2666 15.2746 30.9075 14.4937 31.2859 13.5801C31.6643 12.6665 31.7634 11.6611 31.5704 10.6912C31.3775 9.72131 30.9013 8.8304 30.202 8.13114C29.5028 7.43188 28.6119 6.95567 27.642 6.76275C26.6721 6.56982 25.6667 6.66884 24.7531 7.04728C23.8395 7.42571 23.0586 8.06658 22.5092 8.88882C21.9597 9.71106 21.6665 10.6778 21.6665 11.6667C21.6665 12.9927 22.1933 14.2645 23.131 15.2022C24.0687 16.1399 25.3404 16.6667 26.6665 16.6667ZM26.6665 10C26.9961 10 27.3184 10.0978 27.5925 10.2809C27.8665 10.464 28.0802 10.7243 28.2063 11.0289C28.3324 11.3334 28.3655 11.6685 28.3011 11.9918C28.2368 12.3151 28.0781 12.6121 27.845 12.8452C27.6119 13.0783 27.315 13.237 26.9917 13.3013C26.6684 13.3656 26.3332 13.3326 26.0287 13.2065C25.7242 13.0803 25.4639 12.8667 25.2807 12.5926C25.0976 12.3185 24.9998 11.9963 24.9998 11.6667C24.9998 11.2246 25.1754 10.8007 25.488 10.4882C25.8006 10.1756 26.2245 10 26.6665 10Z" fill="#777674"/>
</g>
<defs>
<clipPath id="clip0_26_13896">
<rect width="40" height="40" fill="white"/>
</clipPath>
</defs>
</svg>
