<svg width="14" height="14" viewBox="0 0 14 14" fill="none" xmlns="http://www.w3.org/2000/svg">
<g clip-path="url(#clip0_656_3823)">
<path d="M5.83333 8.16667V0H1.75C0.785167 0 0 0.785167 0 1.75V12.25C0 13.2148 0.785167 14 1.75 14H12.25C13.2148 14 14 13.2148 14 12.25V8.16667H5.83333ZM12.8333 12.25C12.8333 12.572 12.572 12.8333 12.25 12.8333H1.75C1.42858 12.8333 1.16667 12.572 1.16667 12.25V1.75C1.16667 1.428 1.42858 1.16667 1.75 1.16667H4.66667V3.5H2.91667V4.66667H4.66667V5.83333H2.91667V7H4.66667V8.16667H2.91667V9.33333H4.66667V11.0833H5.83333V9.33333H7V11.0833H8.16667V9.33333H9.33333V11.0833H10.5V9.33333H12.8333V12.25Z" fill="#E2E1DF"/>
</g>
<defs>
<clipPath id="clip0_656_3823">
<rect width="14" height="14" fill="white"/>
</clipPath>
</defs>
</svg>
