<svg width="14" height="14" viewBox="0 0 14 14" fill="none" xmlns="http://www.w3.org/2000/svg">
<g clip-path="url(#clip0_656_430)">
<path d="M2.91667 11.6665C2.91667 12.4721 2.26392 13.1248 1.45833 13.1248C0.65275 13.1248 0 12.4721 0 11.6665C0 10.8609 0.65275 10.2082 1.45833 10.2082C2.26392 10.2082 2.91667 10.8609 2.91667 11.6665ZM12.5417 3.7915C13.3472 3.7915 14 3.13875 14 2.33317C14 1.52759 13.3472 0.874836 12.5417 0.874836C11.7361 0.874836 11.0833 1.52759 11.0833 2.33317C11.0833 3.13875 11.7361 3.7915 12.5417 3.7915ZM11.9583 8.45817V9.33317H13.125V8.45817C13.125 7.01092 11.9472 5.83317 10.5 5.83317H2.625C1.82117 5.83317 1.16667 5.17867 1.16667 4.37484C1.16667 3.571 1.82117 2.9165 2.625 2.9165H8.14158L7.1855 3.87259L8.01033 4.69742L9.62092 3.08684C9.81692 2.89084 9.92542 2.6295 9.92542 2.35242C9.92542 2.07534 9.81692 1.81342 9.62092 1.618L8.01033 0.00683594L7.1855 0.831669L8.10367 1.74984H2.625C1.17775 1.74984 0 2.92759 0 4.37484C0 5.82209 1.17775 6.99984 2.625 6.99984H10.5C11.3038 6.99984 11.9583 7.65434 11.9583 8.45817ZM12.5417 10.2531C11.7361 10.2531 11.0833 10.9058 11.0833 11.7114C11.0833 12.517 11.7361 13.1698 12.5417 13.1698C13.3472 13.1698 14 12.517 14 11.7114C14 10.9058 13.3472 10.2531 12.5417 10.2531ZM8.04592 9.37575L7.22108 10.2006L8.10367 11.0832H4.08333V12.2498H8.14158L7.22108 13.1703L8.04592 13.9952L9.62675 12.4143C10.0281 12.013 10.0281 11.3591 9.62675 10.9566L8.04592 9.37575Z" fill="#E2E1DF"/>
</g>
<defs>
<clipPath id="clip0_656_430">
<rect width="14" height="14" fill="white"/>
</clipPath>
</defs>
</svg>
