<svg width="12" height="12" viewBox="0 0 12 12" fill="none" xmlns="http://www.w3.org/2000/svg">
<path d="M6.00001 1.00004C6.66326 1.00222 7.3195 1.13591 7.93074 1.39339C8.54198 1.65086 9.09609 2.027 9.56101 2.50004H7.50001V3.50004H10.0715C10.3177 3.49978 10.5537 3.40187 10.7278 3.2278C10.9018 3.05373 10.9997 2.81772 11 2.57154V4.37892e-05H10V1.53904C9.13874 0.763473 8.071 0.254372 6.92621 0.0734482C5.78142 -0.107475 4.60872 0.0475473 3.55026 0.519726C2.4918 0.991904 1.59303 1.76096 0.96288 2.73369C0.332729 3.70642 -0.00174208 4.84104 6.82365e-06 6.00004H1.00001C1.00146 4.67441 1.52871 3.40348 2.46608 2.46612C3.40345 1.52875 4.67437 1.0015 6.00001 1.00004Z" fill="#F9F8F7"/>
<path d="M11 6C11.0014 6.99267 10.707 7.96324 10.1542 8.78774C9.60135 9.61225 8.81534 10.2533 7.89649 10.6289C6.97764 11.0046 5.96768 11.0978 4.99558 10.8967C4.02349 10.6956 3.1334 10.2094 2.439 9.5H4.5V8.5H1.9285C1.68233 8.50026 1.44631 8.59817 1.27224 8.77224C1.09817 8.94631 1.00026 9.18233 1 9.4285V12H2V10.461C2.86126 11.2366 3.929 11.7457 5.0738 11.9266C6.21859 12.1075 7.39129 11.9525 8.44974 11.4803C9.5082 11.0081 10.407 10.2391 11.0371 9.26635C11.6673 8.29363 12.0017 7.159 12 6H11Z" fill="#F9F8F7"/>
</svg>
