<svg width="41" height="41" viewBox="0 0 41 41" fill="none" xmlns="http://www.w3.org/2000/svg">
<g clip-path="url(#clip0_4342_2066)">
<path d="M35.5 2.16602H5.5C2.74333 2.16602 0.5 4.40935 0.5 7.16602V38.8327H40.5V7.16602C40.5 4.40935 38.2567 2.16602 35.5 2.16602ZM37.1667 35.4994H3.83333V7.16602C3.83333 6.24768 4.58167 5.49935 5.5 5.49935H35.5C36.4183 5.49935 37.1667 6.24768 37.1667 7.16602V35.4994ZM17.1667 10.4993H32.1667V13.8327H17.1667V10.4993ZM13.8333 12.166C13.8333 13.546 12.7133 14.666 11.3333 14.666C9.95333 14.666 8.83333 13.546 8.83333 12.166C8.83333 10.786 9.95333 9.66602 11.3333 9.66602C12.7133 9.66602 13.8333 10.786 13.8333 12.166ZM17.1667 18.8327H32.1667V22.166H17.1667V18.8327ZM13.8333 20.4993C13.8333 21.8794 12.7133 22.9993 11.3333 22.9993C9.95333 22.9993 8.83333 21.8794 8.83333 20.4993C8.83333 19.1194 9.95333 17.9993 11.3333 17.9993C12.7133 17.9993 13.8333 19.1194 13.8333 20.4993ZM17.1667 27.166H32.1667V30.4993H17.1667V27.166ZM13.8333 28.8327C13.8333 30.2127 12.7133 31.3327 11.3333 31.3327C9.95333 31.3327 8.83333 30.2127 8.83333 28.8327C8.83333 27.4527 9.95333 26.3327 11.3333 26.3327C12.7133 26.3327 13.8333 27.4527 13.8333 28.8327Z" fill="#F36A1D"/>
</g>
<defs>
<clipPath id="clip0_4342_2066">
<rect width="40" height="40" fill="white" transform="translate(0.5 0.5)"/>
</clipPath>
</defs>
</svg>
