<svg width="14" height="14" viewBox="0 0 14 14" fill="none" xmlns="http://www.w3.org/2000/svg">
<g clip-path="url(#clip0_977_16135)">
<path d="M0 1.75V6.41667H6.41667V0H1.75C1.28587 0 0.840752 0.184374 0.512563 0.512563C0.184374 0.840752 0 1.28587 0 1.75H0ZM5.25 5.25H1.16667V1.75C1.16667 1.59529 1.22812 1.44692 1.33752 1.33752C1.44692 1.22812 1.59529 1.16667 1.75 1.16667H5.25V5.25Z" fill="#B4B4AF"/>
<path d="M0 12.25C0 12.7141 0.184375 13.1592 0.512563 13.4874C0.840752 13.8156 1.28587 14 1.75 14H6.41667V7.58333H0V12.25ZM1.16667 8.75H5.25V12.8333H1.75C1.59529 12.8333 1.44692 12.7719 1.33752 12.6625C1.22813 12.5531 1.16667 12.4047 1.16667 12.25V8.75Z" fill="#B4B4AF"/>
<path d="M11.6668 12.4932V1.5085L13.1741 3.0135L14.0001 2.18808L12.3207 0.510999C11.9926 0.183459 11.548 -0.00050354 11.0843 -0.00050354C10.6207 -0.00050354 10.1761 0.183459 9.84797 0.510999L8.17089 2.18517L8.99514 3.01058L10.5001 1.50617V12.4927L8.99222 10.9865L8.16797 11.8119L9.84739 13.489C10.1755 13.8165 10.6202 14.0005 11.0838 14.0005C11.5474 14.0005 11.992 13.8165 12.3201 13.489L14.0001 11.8148L13.1759 10.9894L11.6668 12.4932Z" fill="#B4B4AF"/>
</g>
<defs>
<clipPath id="clip0_977_16135">
<rect width="14" height="14" fill="white"/>
</clipPath>
</defs>
</svg>
