<svg width="14" height="14" viewBox="0 0 14 14" fill="none" xmlns="http://www.w3.org/2000/svg">
<g clip-path="url(#clip0_977_16147)">
<path d="M0.824833 0L0 0.824833L2.50425 3.32908L1.16667 4.66667H4.08333C4.23804 4.66667 4.38642 4.60521 4.49581 4.49581C4.60521 4.38642 4.66667 4.23804 4.66667 4.08333V1.16667L3.32908 2.50425L0.824833 0Z" fill="#B4B4AF"/>
<path d="M12.833 9.33333H9.91634C9.76163 9.33333 9.61326 9.39479 9.50386 9.50418C9.39447 9.61358 9.33301 9.76195 9.33301 9.91666V12.8333L10.6706 11.4957L13.1748 14L13.9997 13.1752L11.4954 10.6709L12.833 9.33333Z" fill="#B4B4AF"/>
<path d="M9.91634 4.66667H12.833L11.4954 3.32908L13.9997 0.824833L13.1748 0L10.6706 2.50425L9.33301 1.16667V4.08333C9.33301 4.23804 9.39447 4.38642 9.50386 4.49581C9.61326 4.60521 9.76163 4.66667 9.91634 4.66667Z" fill="#B4B4AF"/>
<path d="M4.08333 9.33333H1.16667L2.50425 10.6709L0 13.1752L0.824833 14L3.32908 11.4957L4.66667 12.8333V9.91666C4.66667 9.76195 4.60521 9.61358 4.49581 9.50418C4.38642 9.39479 4.23804 9.33333 4.08333 9.33333Z" fill="#B4B4AF"/>
</g>
<defs>
<clipPath id="clip0_977_16147">
<rect width="14" height="14" fill="white"/>
</clipPath>
</defs>
</svg>
