<svg width="40" height="40" viewBox="0 0 40 40" fill="none" xmlns="http://www.w3.org/2000/svg">
<path fill-rule="evenodd" clip-rule="evenodd" d="M32.7892 14.4631C29.7311 7.40005 21.5262 4.15342 14.4631 7.21157C7.40005 10.2697 4.15342 18.4746 7.21157 25.5377C8.70729 28.9922 11.4284 31.5304 14.6533 32.8698C16.1985 33.5115 16.9309 35.2845 16.2892 36.8297C15.6474 38.3749 13.8745 39.1073 12.3293 38.4655C7.71147 36.5477 3.79612 32.8991 1.65121 27.9452C-2.73657 17.8112 1.92164 6.03899 12.0556 1.65121C22.1896 -2.73657 33.9618 1.92164 38.3496 12.0556C39.5768 14.8899 40.0981 17.8614 39.9849 20.765C39.9197 22.437 38.5115 23.7395 36.8396 23.6743C35.1677 23.6091 33.8651 22.2009 33.9303 20.529C34.0089 18.5138 33.6484 16.4475 32.7892 14.4631Z" fill="#777674"/>
</svg>
