<svg width="16" height="20" viewBox="0 0 16 20" fill="none" xmlns="http://www.w3.org/2000/svg">
<path d="M8 9.375C9.29234 9.375 10.3438 8.32359 10.3438 7.03125C10.3438 5.73891 9.29234 4.6875 8 4.6875C6.70766 4.6875 5.65625 5.73891 5.65625 7.03125C5.65625 8.32359 6.70766 9.375 8 9.375ZM8 6.25C8.43078 6.25 8.78125 6.60047 8.78125 7.03125C8.78125 7.46203 8.43078 7.8125 8 7.8125C7.56922 7.8125 7.21875 7.46203 7.21875 7.03125C7.21875 6.60047 7.56922 6.25 8 6.25Z" fill="#4F4D4A"/>
<path d="M15.0312 7.03125C15.0312 3.15422 11.877 0 8 0C4.12297 0 0.96875 3.15422 0.96875 7.03125C0.96875 8.56504 1.45398 10.0227 2.37203 11.2466L6.1243 16.2493C6.56504 16.8368 7.26625 17.1875 8 17.1875C8.73375 17.1875 9.43496 16.8368 9.87574 16.2492L13.628 11.2466C14.546 10.0227 15.0312 8.56504 15.0312 7.03125ZM12.378 10.3091L8.62582 15.3116C8.47637 15.5108 8.24828 15.625 8 15.625C7.75172 15.625 7.52363 15.5108 7.37422 15.3116L3.62199 10.3091C2.90844 9.35773 2.53125 8.22426 2.53125 7.03125C2.53125 4.01578 4.98453 1.5625 8 1.5625C11.0155 1.5625 13.4688 4.01578 13.4688 7.03125C13.4688 8.22426 13.0916 9.35773 12.378 10.3091Z" fill="#4F4D4A"/>
<path d="M11.9062 19.2188C11.9062 18.7873 11.5565 18.4375 11.125 18.4375H4.875C4.44352 18.4375 4.09375 18.7873 4.09375 19.2188C4.09375 19.6502 4.44352 20 4.875 20H11.125C11.5565 20 11.9062 19.6502 11.9062 19.2188Z" fill="#4F4D4A"/>
</svg>
