<svg width="14" height="14" viewBox="0 0 14 14" fill="none" xmlns="http://www.w3.org/2000/svg">
<g clip-path="url(#clip0_656_8597)">
<path d="M6.41667 6.41667H2.08616e-07V1.75C2.08616e-07 1.28587 0.184375 0.840752 0.512563 0.512563C0.840752 0.184375 1.28587 2.08616e-07 1.75 2.08616e-07H6.41667V6.41667ZM1.16667 5.25H5.25V1.16667H1.75C1.59529 1.16667 1.44692 1.22812 1.33752 1.33752C1.22812 1.44692 1.16667 1.59529 1.16667 1.75V5.25Z" fill="#E2E1DF"/>
<path d="M14 6.41667H7.58333V0H12.25C12.7141 0 13.1593 0.184375 13.4874 0.512563C13.8156 0.840752 14 1.28587 14 1.75V6.41667ZM8.75 5.25H12.8333V1.75C12.8333 1.59529 12.7719 1.44692 12.6625 1.33752C12.5531 1.22813 12.4047 1.16667 12.25 1.16667H8.75V5.25Z" fill="#E2E1DF"/>
<path d="M6.41667 14H1.75C1.28587 14 0.840752 13.8156 0.512563 13.4874C0.184375 13.1593 0 12.7141 0 12.25V7.58333H6.41667V14ZM1.16667 8.75V12.25C1.16667 12.4047 1.22813 12.5531 1.33752 12.6625C1.44692 12.7719 1.59529 12.8333 1.75 12.8333H5.25V8.75H1.16667Z" fill="#E2E1DF"/>
<path d="M12.25 14H7.58333V7.58333H14V12.25C14 12.7141 13.8156 13.1593 13.4874 13.4874C13.1593 13.8156 12.7141 14 12.25 14ZM8.75 12.8333H12.25C12.4047 12.8333 12.5531 12.7719 12.6625 12.6625C12.7719 12.5531 12.8333 12.4047 12.8333 12.25V8.75H8.75V12.8333Z" fill="#E2E1DF"/>
</g>
<defs>
<clipPath id="clip0_656_8597">
<rect width="14" height="14" fill="white"/>
</clipPath>
</defs>
</svg>
