<svg width="12" height="12" viewBox="0 0 12 12" fill="none" xmlns="http://www.w3.org/2000/svg">
<path d="M7.5998 5.5987C7.22913 5.37487 6.8773 5.12124 6.5478 4.8403L4.8078 2.5755C4.75375 2.50405 4.67945 2.45053 4.59457 2.42188C4.50968 2.39323 4.41814 2.39078 4.33185 2.41486C4.24556 2.43893 4.1685 2.48842 4.11071 2.55687C4.05292 2.62533 4.01706 2.70959 4.0078 2.7987H3.9998V3.9987H2.567C2.51393 3.9989 2.46134 3.98853 2.4123 3.96821C2.36327 3.94788 2.31877 3.918 2.2814 3.8803C2.2814 3.8803 1.9998 3.1987 1.5998 3.1987H1.1998C1.09372 3.1987 0.991976 3.24084 0.916962 3.31586C0.841947 3.39087 0.799805 3.49261 0.799805 3.5987V7.1987H5.1998C6.3998 7.1987 6.7998 7.9987 7.9998 7.9987H11.1998V7.5987C11.1998 6.3987 8.4374 6.0739 7.5998 5.5987ZM7.5998 8.7987C7.16888 8.78654 6.74838 8.66337 6.379 8.4411C5.89856 8.16229 5.35517 8.01006 4.7998 7.9987H0.799805V9.1987C0.799805 9.30479 0.841947 9.40653 0.916962 9.48154C0.991976 9.55656 1.09372 9.5987 1.1998 9.5987H4.3998C4.50589 9.5987 4.60763 9.55656 4.68265 9.48154C4.75766 9.40653 4.7998 9.30479 4.7998 9.1987V8.7987C5.23071 8.81097 5.65118 8.93413 6.0206 9.1563C6.50105 9.43511 7.04444 9.58733 7.5998 9.5987H10.7998C10.9059 9.5987 11.0076 9.55656 11.0826 9.48154C11.1577 9.40653 11.1998 9.30479 11.1998 9.1987V8.7987H7.5998Z" fill="#B4B4AF"/>
</svg>
